<svg width="43" height="43" viewBox="0 0 43 43" fill="none" xmlns="http://www.w3.org/2000/svg">
<path d="M37.625 8.95703V16.1237" stroke="white" stroke-width="2.6875" stroke-linecap="round" stroke-linejoin="round"/>
<path d="M8.9583 34.043V16.1263C8.9583 15.1759 9.33583 14.2645 10.0078 13.5925C10.6798 12.9205 11.5913 12.543 12.5416 12.543H28.6666C29.617 12.543 30.5284 12.9205 31.2004 13.5925C31.8724 14.2645 32.25 15.1759 32.25 16.1263V34.043C32.25 34.9933 31.8724 35.9048 31.2004 36.5768C30.5284 37.2488 29.617 37.6263 28.6666 37.6263H12.5416C11.5913 37.6263 10.6798 37.2488 10.0078 36.5768C9.33583 35.9048 8.9583 34.9933 8.9583 34.043Z" stroke="white" stroke-width="2.6875"/>
<path d="M8.95834 17.9167V8.95833C8.95834 8.00797 9.33586 7.09654 10.0079 6.42453C10.6799 5.75253 11.5913 5.375 12.5417 5.375H28.6667C29.617 5.375 30.5285 5.75253 31.2005 6.42453C31.8725 7.09654 32.25 8.00797 32.25 8.95833V17.9167" stroke="white" stroke-width="2.6875"/>
<path d="M20.0075 19.707L17.0208 25.082H24.1875L21.2008 30.457" stroke="#01CC01" stroke-width="2.6875" stroke-linecap="round" stroke-linejoin="round"/>
</svg>
