<svg width="16" height="17" viewBox="0 0 16 17" fill="none" xmlns="http://www.w3.org/2000/svg">
<path d="M13.249 8.75C13.2475 9.04778 13.1797 9.3415 13.0506 9.60983C12.9214 9.87816 12.7342 10.1144 12.5024 10.3014L6.5536 15.2121C6.19547 15.499 5.76392 15.6796 5.30816 15.7332C4.85239 15.7868 4.39072 15.7114 3.97577 15.5154C3.61514 15.3564 3.30788 15.097 3.0907 14.7681C2.87352 14.4392 2.75559 14.0548 2.75101 13.6607V3.83929C2.75559 3.44521 2.87352 3.06077 3.0907 2.73189C3.30788 2.40302 3.61514 2.14361 3.97577 1.98465C4.39072 1.78865 4.85239 1.71316 5.30816 1.76678C5.76392 1.8204 6.19547 2.00097 6.5536 2.28792L12.5024 7.19864C12.7342 7.38561 12.9214 7.62184 13.0506 7.89017C13.1797 8.15851 13.2475 8.45222 13.249 8.75Z" fill="#01CC01"/>
</svg>
