<svg width="22" height="24" viewBox="0 0 22 24" fill="none" xmlns="http://www.w3.org/2000/svg">
<path d="M20.1827 11.0027C19.8678 10.5466 18.6977 10.2326 18.2027 9.4118C17.7077 8.59102 17.3025 6.81352 16.0427 6.13055C14.7829 5.44758 12.3749 5.25586 10.9999 5.25586C9.62489 5.25586 7.21864 5.44336 5.95708 6.12914C4.69552 6.81492 4.29204 8.59102 3.79704 9.41039C3.30204 10.2298 2.132 10.5466 1.81704 11.0027C1.50208 11.4588 1.28036 14.3421 1.41528 15.7559C1.5502 17.1696 1.802 18.0059 1.802 18.0059H5.49731C6.10231 18.0059 6.29911 17.7579 7.53661 17.6309C8.89442 17.4902 10.2265 17.4434 10.9999 17.4434C11.7733 17.4434 13.1483 17.4902 14.5053 17.6309C15.7428 17.7588 15.946 18.0059 16.5446 18.0059H20.1969C20.1969 18.0059 20.4487 17.1696 20.5836 15.7559C20.7186 14.3421 20.496 11.4588 20.1827 11.0027ZM17.1874 18.0059H19.5936V18.7559H17.1874V18.0059ZM2.40614 18.0059H4.81239V18.7559H2.40614V18.0059Z" stroke="#0CE8A6" stroke-width="1.5" stroke-linecap="round" stroke-linejoin="round"/>
<path d="M15.6609 14.4938C15.407 14.1736 14.5794 13.9064 13.4837 13.7274C12.388 13.5483 11.9884 13.5019 11.0087 13.5019C10.029 13.5019 9.58343 13.5788 8.53327 13.7274C7.48312 13.876 6.69464 14.1404 6.35648 14.4938C5.84902 15.03 6.59237 15.6319 7.17589 15.705C7.74136 15.7754 8.87187 15.7496 11.0134 15.7496C13.155 15.7496 14.2855 15.7754 14.851 15.705C15.4336 15.6277 16.1237 15.0675 15.6609 14.4938ZM18.5441 11.3949C18.5417 11.3577 18.5268 11.3227 18.5022 11.2968C18.4776 11.2708 18.4451 11.2557 18.4109 11.2543C17.9035 11.2346 17.3883 11.274 16.4743 11.5679C16.008 11.7164 15.5702 11.9555 15.1818 12.2738C15.0839 12.3572 15.1187 12.5827 15.2416 12.6066C15.9949 12.703 16.7527 12.7515 17.5112 12.7519C17.9662 12.7519 18.4358 12.6113 18.5231 12.1688C18.5675 11.9137 18.5747 11.6524 18.5441 11.3949ZM3.45609 11.3949C3.4585 11.3577 3.47343 11.3227 3.49801 11.2968C3.5226 11.2708 3.5551 11.2557 3.58929 11.2543C4.09675 11.2346 4.61195 11.274 5.52589 11.5679C5.99217 11.7164 6.43003 11.9555 6.81839 12.2738C6.91636 12.3572 6.88155 12.5827 6.75866 12.6066C6.00535 12.703 5.24753 12.7515 4.48906 12.7519C4.03402 12.7519 3.56437 12.6113 3.47714 12.1688C3.43267 11.9137 3.42556 11.6524 3.45609 11.3949Z" fill="#0CE8A6"/>
<path d="M3.35156 9.89648C3.35156 9.89648 5.34316 9.33398 11 9.33398C16.6568 9.33398 18.6484 9.89648 18.6484 9.89648M18.5625 9.00586H19.25H18.5625ZM2.75 9.00586H3.4375H2.75Z" stroke="#0CE8A6" stroke-width="1.5" stroke-linecap="round" stroke-linejoin="round"/>
</svg>
