<svg width="31" height="30" viewBox="0 0 31 30" fill="none" xmlns="http://www.w3.org/2000/svg">
<path d="M15.2749 0.923828C17.1493 0.92364 19.0049 1.28172 20.7358 1.97656C22.4669 2.67148 24.0395 3.68994 25.3628 4.97266C26.6859 6.25525 27.7346 7.77748 28.4497 9.45117C29.1647 11.1248 29.5329 12.918 29.5327 14.7285C29.5327 17.4553 28.698 20.1227 27.1333 22.3926C25.5685 24.6625 23.3428 26.4338 20.7358 27.4805C18.1288 28.5272 15.2594 28.8013 12.4907 28.2676C9.72206 27.7338 7.181 26.4162 5.18799 24.4844C3.19514 22.5527 1.83943 20.0938 1.29053 17.4189C0.741666 14.7443 1.02307 11.9717 2.1001 9.45117C3.17726 6.93044 5.00229 4.77268 7.34717 3.25391C9.69228 1.73502 12.4516 0.923828 15.2749 0.923828Z" stroke="#01CC01"/>
<mask id="path-2-inside-1_130_1712" fill="white">
<path d="M27.2256 14.2419C27.2262 15.1103 26.9612 15.9593 26.464 16.6815C25.9668 17.4038 25.2597 17.967 24.4323 18.2997C23.6049 18.6324 22.6942 18.7198 21.8156 18.5508C20.9369 18.3818 20.1297 17.964 19.496 17.3502C18.8623 16.7364 18.4307 15.9542 18.2557 15.1027C18.0807 14.2511 18.1702 13.3683 18.5129 12.566C18.8555 11.7637 19.436 11.078 20.1807 10.5955C20.9255 10.113 21.8012 9.85547 22.697 9.85547C23.2918 9.85526 23.8808 9.96866 24.4303 10.1892C24.9798 10.4097 25.4791 10.733 25.8997 11.1407C26.3202 11.5484 26.6538 12.0323 26.8813 12.565C27.1088 13.0977 27.2258 13.6686 27.2256 14.2451"/>
</mask>
<path d="M27.2256 14.2419C27.2262 15.1103 26.9612 15.9593 26.464 16.6815C25.9668 17.4038 25.2597 17.967 24.4323 18.2997C23.6049 18.6324 22.6942 18.7198 21.8156 18.5508C20.9369 18.3818 20.1297 17.964 19.496 17.3502C18.8623 16.7364 18.4307 15.9542 18.2557 15.1027C18.0807 14.2511 18.1702 13.3683 18.5129 12.566C18.8555 11.7637 19.436 11.078 20.1807 10.5955C20.9255 10.113 21.8012 9.85547 22.697 9.85547C23.2918 9.85526 23.8808 9.96866 24.4303 10.1892C24.9798 10.4097 25.4791 10.733 25.8997 11.1407C26.3202 11.5484 26.6538 12.0323 26.8813 12.565C27.1088 13.0977 27.2258 13.6686 27.2256 14.2451" fill="white"/>
<path d="M22.697 9.85547V10.8555L22.6974 10.8555L22.697 9.85547ZM27.2256 14.2419L26.2256 14.2427C26.2261 14.9061 26.0237 15.5575 25.6403 16.1145L26.464 16.6815L27.2877 17.2486C27.8987 16.361 28.2264 15.3144 28.2256 14.2412L27.2256 14.2419ZM26.464 16.6815L25.6403 16.1145C25.2566 16.672 24.7076 17.1112 24.0592 17.3719L24.4323 18.2997L24.8054 19.2275C25.8119 18.8227 26.677 18.1357 27.2877 17.2486L26.464 16.6815ZM24.4323 18.2997L24.0592 17.3719C23.4106 17.6327 22.6951 17.7016 22.0045 17.5688L21.8156 18.5508L21.6267 19.5328C22.6933 19.738 23.7991 19.6321 24.8054 19.2275L24.4323 18.2997ZM21.8156 18.5508L22.0045 17.5688C21.3139 17.436 20.6836 17.1083 20.1918 16.6319L19.496 17.3502L18.8003 18.0685C19.5757 18.8196 20.5599 19.3276 21.6267 19.5328L21.8156 18.5508ZM19.496 17.3502L20.1918 16.6319C19.7002 16.1558 19.3691 15.5529 19.2352 14.9014L18.2557 15.1027L17.2762 15.3039C17.4923 16.3556 18.0245 17.317 18.8003 18.0685L19.496 17.3502ZM18.2557 15.1027L19.2352 14.9014C19.1014 14.25 19.1695 13.5745 19.4325 12.9588L18.5129 12.566L17.5932 12.1732C17.1709 13.1621 17.06 14.2521 17.2762 15.3039L18.2557 15.1027ZM18.5129 12.566L19.4325 12.9588C19.6956 12.3427 20.1435 11.8111 20.7244 11.4348L20.1807 10.5955L19.6371 9.75619C18.7284 10.3448 18.0154 11.1847 17.5932 12.1732L18.5129 12.566ZM20.1807 10.5955L20.7244 11.4348C21.3057 11.0582 21.9922 10.8555 22.697 10.8555V9.85547L22.697 8.85547C21.6102 8.85547 20.5454 9.16776 19.6371 9.75619L20.1807 10.5955ZM22.697 9.85547L22.6974 10.8555C23.165 10.8553 23.6274 10.9445 24.0579 11.1172L24.4303 10.1892L24.8027 9.26112C24.1341 8.99282 23.4186 8.85522 22.6967 8.85547L22.697 9.85547ZM24.4303 10.1892L24.0579 11.1172C24.4883 11.29 24.8774 11.5424 25.2037 11.8587L25.8997 11.1407L26.5957 10.4227C26.0809 9.92365 25.4714 9.52945 24.8027 9.26112L24.4303 10.1892ZM25.8997 11.1407L25.2037 11.8587C25.5299 12.175 25.787 12.5487 25.9617 12.9578L26.8813 12.565L27.8009 12.1722C27.5207 11.516 27.1106 10.9217 26.5957 10.4227L25.8997 11.1407ZM26.8813 12.565L25.9617 12.9578C26.1364 13.3668 26.2258 13.804 26.2256 14.2447L27.2256 14.2451L28.2256 14.2455C28.2259 13.5332 28.0813 12.8286 27.8009 12.1722L26.8813 12.565Z" fill="#01CC01" mask="url(#path-2-inside-1_130_1712)"/>
<mask id="path-4-inside-2_130_1712" fill="white">
<path d="M12.3003 14.2419C12.3009 15.1103 12.0359 15.9593 11.5387 16.6815C11.0415 17.4038 10.3344 17.967 9.50701 18.2997C8.67958 18.6324 7.76894 18.7198 6.89027 18.5508C6.01159 18.3818 5.20437 17.964 4.57071 17.3502C3.93705 16.7364 3.50542 15.9542 3.33042 15.1027C3.15542 14.2511 3.24491 13.3683 3.58757 12.566C3.93023 11.7637 4.51066 11.078 5.25545 10.5955C6.00024 10.113 6.87592 9.85547 7.77173 9.85547C8.36649 9.85526 8.95546 9.96866 9.50499 10.1892C10.0545 10.4097 10.5538 10.733 10.9744 11.1407C11.395 11.5484 11.7285 12.0323 11.956 12.565C12.1835 13.0977 12.3005 13.6686 12.3003 14.2451"/>
</mask>
<path d="M12.3003 14.2419C12.3009 15.1103 12.0359 15.9593 11.5387 16.6815C11.0415 17.4038 10.3344 17.967 9.50701 18.2997C8.67958 18.6324 7.76894 18.7198 6.89027 18.5508C6.01159 18.3818 5.20437 17.964 4.57071 17.3502C3.93705 16.7364 3.50542 15.9542 3.33042 15.1027C3.15542 14.2511 3.24491 13.3683 3.58757 12.566C3.93023 11.7637 4.51066 11.078 5.25545 10.5955C6.00024 10.113 6.87592 9.85547 7.77173 9.85547C8.36649 9.85526 8.95546 9.96866 9.50499 10.1892C10.0545 10.4097 10.5538 10.733 10.9744 11.1407C11.395 11.5484 11.7285 12.0323 11.956 12.565C12.1835 13.0977 12.3005 13.6686 12.3003 14.2451" fill="white"/>
<path d="M7.77173 9.85547V10.8555L7.77208 10.8555L7.77173 9.85547ZM12.3003 14.2419L11.3003 14.2427C11.3008 14.9061 11.0984 15.5575 10.715 16.1145L11.5387 16.6815L12.3624 17.2486C12.9734 16.361 13.3011 15.3144 13.3003 14.2412L12.3003 14.2419ZM11.5387 16.6815L10.715 16.1145C10.3313 16.672 9.78226 17.1112 9.13393 17.3719L9.50701 18.2997L9.8801 19.2275C10.8866 18.8227 11.7517 18.1357 12.3624 17.2486L11.5387 16.6815ZM9.50701 18.2997L9.13393 17.3719C8.48536 17.6327 7.76985 17.7016 7.07916 17.5688L6.89027 18.5508L6.70137 19.5328C7.76802 19.738 8.87381 19.6321 9.8801 19.2275L9.50701 18.2997ZM6.89027 18.5508L7.07916 17.5688C6.38859 17.436 5.7583 17.1083 5.26646 16.6319L4.57071 17.3502L3.87497 18.0685C4.65044 18.8196 5.6346 19.3276 6.70137 19.5328L6.89027 18.5508ZM4.57071 17.3502L5.26646 16.6319C4.77495 16.1558 4.44385 15.5529 4.30995 14.9014L3.33042 15.1027L2.35089 15.3039C2.56699 16.3556 3.09916 17.317 3.87497 18.0685L4.57071 17.3502ZM3.33042 15.1027L4.30995 14.9014C4.1761 14.25 4.24424 13.5745 4.5072 12.9588L3.58757 12.566L2.66793 12.1732C2.24557 13.1621 2.13474 14.2521 2.35089 15.3039L3.33042 15.1027ZM3.58757 12.566L4.5072 12.9588C4.77032 12.3427 5.21823 11.8111 5.79915 11.4348L5.25545 10.5955L4.71176 9.75619C3.8031 10.3448 3.09013 11.1847 2.66793 12.1732L3.58757 12.566ZM5.25545 10.5955L5.79915 11.4348C6.38039 11.0582 7.06693 10.8555 7.77173 10.8555V9.85547L7.77173 8.85547C6.68492 8.85547 5.6201 9.16776 4.71176 9.75619L5.25545 10.5955ZM7.77173 9.85547L7.77208 10.8555C8.23971 10.8553 8.7021 10.9445 9.13256 11.1172L9.50499 10.1892L9.87742 9.26112C9.20883 8.99282 8.49327 8.85522 7.77138 8.85547L7.77173 9.85547ZM9.50499 10.1892L9.13256 11.1172C9.56298 11.29 9.95207 11.5424 10.2784 11.8587L10.9744 11.1407L11.6704 10.4227C11.1556 9.92365 10.5461 9.52945 9.87742 9.26112L9.50499 10.1892ZM10.9744 11.1407L10.2784 11.8587C10.6046 12.175 10.8617 12.5487 11.0364 12.9578L11.956 12.565L12.8757 12.1722C12.5954 11.516 12.1853 10.9217 11.6704 10.4227L10.9744 11.1407ZM11.956 12.565L11.0364 12.9578C11.2111 13.3668 11.3005 13.804 11.3003 14.2447L12.3003 14.2451L13.3003 14.2455C13.3006 13.5332 13.156 12.8286 12.8757 12.1722L11.956 12.565Z" fill="#01CC01" mask="url(#path-4-inside-2_130_1712)"/>
<mask id="path-6-inside-3_130_1712" fill="white">
<path d="M19.7295 6.54784C19.7295 7.4161 19.4639 8.26485 18.9662 8.98676C18.4685 9.70867 17.7611 10.2713 16.9336 10.6035C16.106 10.9357 15.1953 11.0225 14.3168 10.853C13.4383 10.6835 12.6314 10.2653 11.9982 9.65122C11.3649 9.03716 10.9337 8.25486 10.7592 7.40324C10.5846 6.55163 10.6745 5.66897 11.0176 4.8669C11.3606 4.06482 11.9413 3.37937 12.6862 2.89722C13.4311 2.41507 14.3068 2.15789 15.2026 2.1582C15.7972 2.1582 16.386 2.27176 16.9353 2.49238C17.4847 2.713 17.9838 3.03636 18.4042 3.444C18.8246 3.85163 19.158 4.33555 19.3854 4.86812C19.6128 5.40069 19.7297 5.97146 19.7295 6.54784Z"/>
</mask>
<path d="M19.7295 6.54784C19.7295 7.4161 19.4639 8.26485 18.9662 8.98676C18.4685 9.70867 17.7611 10.2713 16.9336 10.6035C16.106 10.9357 15.1953 11.0225 14.3168 10.853C13.4383 10.6835 12.6314 10.2653 11.9982 9.65122C11.3649 9.03716 10.9337 8.25486 10.7592 7.40324C10.5846 6.55163 10.6745 5.66897 11.0176 4.8669C11.3606 4.06482 11.9413 3.37937 12.6862 2.89722C13.4311 2.41507 14.3068 2.15789 15.2026 2.1582C15.7972 2.1582 16.386 2.27176 16.9353 2.49238C17.4847 2.713 17.9838 3.03636 18.4042 3.444C18.8246 3.85163 19.158 4.33555 19.3854 4.86812C19.6128 5.40069 19.7297 5.97146 19.7295 6.54784Z" fill="white"/>
<path d="M15.2026 2.1582L15.2022 3.1582H15.2026V2.1582ZM19.7295 6.54784L18.7295 6.54784C18.7295 7.21124 18.5267 7.86242 18.1429 8.41918L18.9662 8.98676L19.7895 9.55435C20.401 8.66729 20.7295 7.62096 20.7295 6.54784H19.7295ZM18.9662 8.98676L18.1429 8.41918C17.7588 8.97633 17.2095 9.41517 16.561 9.67547L16.9336 10.6035L17.3061 11.5315C18.3128 11.1274 19.1782 10.441 19.7895 9.55435L18.9662 8.98676ZM16.9336 10.6035L16.561 9.67547C15.9123 9.93586 15.1969 10.0044 14.5063 9.87113L14.3168 10.853L14.1274 11.8349C15.1938 12.0407 16.2996 11.9355 17.3061 11.5315L16.9336 10.6035ZM14.3168 10.853L14.5063 9.87113C13.8159 9.73792 13.1858 9.40994 12.6943 8.93332L11.9982 9.65122L11.302 10.3691C12.077 11.1206 13.0608 11.6291 14.1274 11.8349L14.3168 10.853ZM11.9982 9.65122L12.6943 8.93332C12.2031 8.45702 11.8724 7.85405 11.7388 7.20245L10.7592 7.40324L9.77955 7.60403C9.99509 8.65566 10.5267 9.61731 11.302 10.3691L11.9982 9.65122ZM10.7592 7.40324L11.7388 7.20245C11.6053 6.55109 11.6738 5.87562 11.937 5.2601L11.0176 4.8669L10.0981 4.47369C9.67531 5.46232 9.56395 6.55217 9.77955 7.60403L10.7592 7.40324ZM11.0176 4.8669L11.937 5.2601C12.2004 4.6442 12.6485 4.11279 13.2295 3.73672L12.6862 2.89722L12.1428 2.05772C11.234 2.64594 10.5207 3.48544 10.0981 4.47369L11.0176 4.8669ZM12.6862 2.89722L13.2295 3.73672C13.8109 3.36044 14.4975 3.15796 15.2022 3.1582L15.2026 2.1582L15.2029 1.1582C14.1162 1.15782 13.0513 1.46969 12.1428 2.05772L12.6862 2.89722ZM15.2026 2.1582V3.1582C15.6701 3.1582 16.1323 3.24752 16.5627 3.42034L16.9353 2.49238L17.308 1.56441C16.6396 1.29599 15.9243 1.1582 15.2026 1.1582V2.1582ZM16.9353 2.49238L16.5627 3.42034C16.9929 3.59313 17.3819 3.84562 17.708 4.1619L18.4042 3.444L19.1003 2.72609C18.5857 2.2271 17.9764 1.83286 17.308 1.56441L16.9353 2.49238ZM18.4042 3.444L17.708 4.1619C18.0341 4.47812 18.2911 4.85182 18.4657 5.26081L19.3854 4.86812L20.305 4.47543C20.0249 3.81929 19.615 3.22514 19.1003 2.72609L18.4042 3.444ZM19.3854 4.86812L18.4657 5.26081C18.6403 5.66973 18.7297 6.10684 18.7295 6.54747L19.7295 6.54784L20.7295 6.54822C20.7298 5.83608 20.5852 5.13164 20.305 4.47543L19.3854 4.86812Z" fill="#01CC01" mask="url(#path-6-inside-3_130_1712)"/>
<mask id="path-8-inside-4_130_1712" fill="white">
<path d="M19.8032 22.9111C19.8032 23.7793 19.5376 24.628 19.04 25.3499C18.5424 26.0718 17.8352 26.6344 17.0077 26.9666C16.1802 27.2989 15.2696 27.3858 14.3912 27.2164C13.5127 27.047 12.7058 26.629 12.0725 26.0151C11.4392 25.4012 11.0078 24.619 10.8331 23.7675C10.6584 22.916 10.7481 22.0334 11.0908 21.2313C11.4336 20.4292 12.014 19.7436 12.7587 19.2613C13.5034 18.7789 14.379 18.5215 15.2747 18.5215C15.8694 18.5213 16.4584 18.6347 17.0079 18.8552C17.5575 19.0757 18.0568 19.3991 18.4773 19.8067C18.8979 20.2144 19.2314 20.6984 19.459 21.231C19.6865 21.7637 19.8034 22.3346 19.8032 22.9111Z"/>
</mask>
<path d="M19.8032 22.9111C19.8032 23.7793 19.5376 24.628 19.04 25.3499C18.5424 26.0718 17.8352 26.6344 17.0077 26.9666C16.1802 27.2989 15.2696 27.3858 14.3912 27.2164C13.5127 27.047 12.7058 26.629 12.0725 26.0151C11.4392 25.4012 11.0078 24.619 10.8331 23.7675C10.6584 22.916 10.7481 22.0334 11.0908 21.2313C11.4336 20.4292 12.014 19.7436 12.7587 19.2613C13.5034 18.7789 14.379 18.5215 15.2747 18.5215C15.8694 18.5213 16.4584 18.6347 17.0079 18.8552C17.5575 19.0757 18.0568 19.3991 18.4773 19.8067C18.8979 20.2144 19.2314 20.6984 19.459 21.231C19.6865 21.7637 19.8034 22.3346 19.8032 22.9111Z" fill="white"/>
<path d="M15.2747 18.5215V19.5215L15.275 19.5215L15.2747 18.5215ZM19.8032 22.9111H18.8032C18.8032 23.5745 18.6005 24.2256 18.2167 24.7823L19.04 25.3499L19.8634 25.9174C20.4748 25.0304 20.8032 23.9842 20.8032 22.9111H19.8032ZM19.04 25.3499L18.2167 24.7823C17.8326 25.3395 17.2835 25.7783 16.6351 26.0386L17.0077 26.9666L17.3803 27.8946C18.3869 27.4905 19.2522 26.804 19.8634 25.9174L19.04 25.3499ZM17.0077 26.9666L16.6351 26.0386C15.9865 26.2991 15.271 26.3676 14.5805 26.2345L14.3912 27.2164L14.2019 28.1983C15.2683 28.4039 16.3739 28.2987 17.3803 27.8946L17.0077 26.9666ZM14.3912 27.2164L14.5805 26.2345C13.8901 26.1014 13.2601 25.7735 12.7685 25.297L12.0725 26.0151L11.3765 26.7331C12.1516 27.4844 13.1353 27.9927 14.2019 28.1983L14.3912 27.2164ZM12.0725 26.0151L12.7685 25.297C12.2772 24.8209 11.9464 24.218 11.8127 23.5665L10.8331 23.7675L9.85352 23.9685C10.0693 25.02 10.6011 25.9815 11.3765 26.7331L12.0725 26.0151ZM10.8331 23.7675L11.8127 23.5665C11.679 22.9152 11.7473 22.2398 12.0104 21.6242L11.0908 21.2313L10.1713 20.8383C9.74877 21.827 9.6377 22.9168 9.85352 23.9685L10.8331 23.7675ZM11.0908 21.2313L12.0104 21.6242C12.2736 21.0083 12.7215 20.4768 13.3023 20.1006L12.7587 19.2613L12.2151 18.4219C11.3065 19.0104 10.5936 19.85 10.1713 20.8383L11.0908 21.2313ZM12.7587 19.2613L13.3023 20.1006C13.8835 19.7242 14.57 19.5215 15.2747 19.5215V18.5215V17.5215C14.188 17.5215 13.1234 17.8337 12.2151 18.4219L12.7587 19.2613ZM15.2747 18.5215L15.275 19.5215C15.7426 19.5213 16.205 19.6105 16.6355 19.7833L17.0079 18.8552L17.3804 17.9271C16.7118 17.6588 15.9962 17.5212 15.2743 17.5215L15.2747 18.5215ZM17.0079 18.8552L16.6355 19.7833C17.0659 19.956 17.455 20.2084 17.7813 20.5247L18.4773 19.8067L19.1733 19.0887C18.6585 18.5897 18.049 18.1955 17.3804 17.9271L17.0079 18.8552ZM18.4773 19.8067L17.7813 20.5247C18.1076 20.841 18.3646 21.2147 18.5393 21.6238L19.459 21.231L20.3786 20.8383C20.0983 20.182 19.6882 19.5878 19.1733 19.0887L18.4773 19.8067ZM19.459 21.231L18.5393 21.6238C18.714 22.0328 18.8034 22.47 18.8032 22.9108L19.8032 22.9111L20.8032 22.9115C20.8035 22.1992 20.6589 21.4946 20.3786 20.8383L19.459 21.231Z" fill="#01CC01" mask="url(#path-8-inside-4_130_1712)"/>
<path d="M11.5859 25.9846L18.8273 20.4028M11.5859 20.4028L18.8273 25.9846M11.5859 9.17203L18.8273 3.55664M11.5859 3.55664L18.8273 9.17203" stroke="#01CC01" stroke-miterlimit="10"/>
</svg>
