<svg width="27" height="31" viewBox="0 0 27 31" fill="none" xmlns="http://www.w3.org/2000/svg">
<path d="M5.67529 22.5879H21.6206C23.6237 22.5879 25.2212 24.1582 25.2212 26.0625V26.5059C25.2212 28.4101 23.6237 29.9805 21.6206 29.9805H5.67529C3.67218 29.9805 2.07471 28.4101 2.07471 26.5059V26.0625L2.07959 25.8848C2.17517 24.0614 3.73478 22.5879 5.67529 22.5879Z" stroke="#01CC01"/>
<mask id="path-2-inside-1_130_1735" fill="white">
<path d="M22.5632 0.425419H4.7411C2.30622 2.87711 0.952138 6.15163 0.965925 9.55472C0.965925 16.6459 6.64509 22.3943 13.6521 22.3943C20.6592 22.3943 26.3367 16.6459 26.3367 9.55472C26.3516 6.15095 24.9974 2.87555 22.5615 0.423828"/>
</mask>
<path d="M4.7411 0.425419V-0.574581H4.32486L4.03156 -0.279249L4.7411 0.425419ZM0.965925 9.55472H1.96593L1.96592 9.55067L0.965925 9.55472ZM26.3367 9.55472L25.3367 9.55034V9.55472H26.3367ZM22.5632 0.425419V-0.574581H4.7411V0.425419V1.42542H22.5632V0.425419ZM4.7411 0.425419L4.03156 -0.279249C1.41287 2.35753 -0.048947 5.88571 -0.0340672 9.55877L0.965925 9.55472L1.96592 9.55067C1.95322 6.41754 3.19958 3.3967 5.45063 1.13009L4.7411 0.425419ZM0.965925 9.55472H-0.0340754C-0.0340754 17.1868 6.08149 23.3943 13.6521 23.3943V22.3943V21.3943C7.2087 21.3943 1.96592 16.105 1.96592 9.55472H0.965925ZM13.6521 22.3943V23.3943C21.223 23.3943 27.3367 17.1866 27.3367 9.55472H26.3367H25.3367C25.3367 16.1052 20.0954 21.3943 13.6521 21.3943V22.3943ZM26.3367 9.55472L27.3367 9.5591C27.3528 5.88518 25.8908 2.35591 23.2709 -0.280981L22.5615 0.423828L21.8521 1.12864C24.104 3.39518 25.3504 6.41672 25.3367 9.55034L26.3367 9.55472Z" fill="#01CC01" mask="url(#path-2-inside-1_130_1735)"/>
<mask id="path-4-inside-2_130_1735" fill="white">
<path d="M16.3246 10.0654C16.3239 10.5748 16.1675 11.0725 15.875 11.4957C15.5825 11.919 15.1672 12.2486 14.6814 12.443C14.1957 12.6375 13.6614 12.6879 13.1461 12.5881C12.6308 12.4882 12.1576 12.2424 11.7864 11.8819C11.4151 11.5214 11.1625 11.0623 11.0604 10.5626C10.9583 10.0629 11.0114 9.54508 11.2128 9.07461C11.4143 8.60415 11.7552 8.20215 12.1923 7.91945C12.6295 7.63674 13.1433 7.48601 13.6688 7.48633C14.3732 7.48633 15.0487 7.75755 15.5467 8.24032C16.0448 8.72308 16.3246 9.37786 16.3246 10.0606"/>
</mask>
<path d="M16.3246 10.0654C16.3239 10.5748 16.1675 11.0725 15.875 11.4957C15.5825 11.919 15.1672 12.2486 14.6814 12.443C14.1957 12.6375 13.6614 12.6879 13.1461 12.5881C12.6308 12.4882 12.1576 12.2424 11.7864 11.8819C11.4151 11.5214 11.1625 11.0623 11.0604 10.5626C10.9583 10.0629 11.0114 9.54508 11.2128 9.07461C11.4143 8.60415 11.7552 8.20215 12.1923 7.91945C12.6295 7.63674 13.1433 7.48601 13.6688 7.48633C14.3732 7.48633 15.0487 7.75755 15.5467 8.24032C16.0448 8.72308 16.3246 9.37786 16.3246 10.0606" fill="white"/>
<path d="M13.6688 7.48633L13.6682 8.48633H13.6688V7.48633ZM16.3246 10.0654L15.3246 10.0641C15.3242 10.3687 15.2308 10.669 15.0523 10.9272L15.875 11.4957L16.6977 12.0643C17.1041 11.4761 17.3236 10.7809 17.3246 10.0666L16.3246 10.0654ZM15.875 11.4957L15.0523 10.9272C14.8736 11.1859 14.6164 11.3919 14.3098 11.5147L14.6814 12.443L15.0531 13.3714C15.7179 13.1053 16.2915 12.652 16.6977 12.0643L15.875 11.4957ZM14.6814 12.443L14.3098 11.5147C14.003 11.6375 13.6638 11.6698 13.3364 11.6063L13.1461 12.5881L12.9558 13.5698C13.659 13.7061 14.3884 13.6375 15.0531 13.3714L14.6814 12.443ZM13.1461 12.5881L13.3364 11.6063C13.0091 11.5429 12.7127 11.3875 12.483 11.1645L11.7864 11.8819L11.0897 12.5993C11.6025 13.0973 12.2525 13.4335 12.9558 13.5698L13.1461 12.5881ZM11.7864 11.8819L12.483 11.1645C12.2537 10.9418 12.1014 10.6621 12.0402 10.3624L11.0604 10.5626L10.0806 10.7627C10.2236 11.4624 10.5765 12.1009 11.0897 12.5993L11.7864 11.8819ZM11.0604 10.5626L12.0402 10.3624C11.979 10.063 12.0105 9.75228 12.1321 9.46829L11.2128 9.07461L10.2936 8.68094C10.0122 9.33787 9.93763 10.0628 10.0806 10.7627L11.0604 10.5626ZM11.2128 9.07461L12.1321 9.46829C12.2539 9.18392 12.4621 8.93587 12.7354 8.75915L12.1923 7.91945L11.6493 7.07974C11.0482 7.46844 10.5748 8.02438 10.2936 8.68094L11.2128 9.07461ZM12.1923 7.91945L12.7354 8.75915C13.0089 8.58223 13.3336 8.48613 13.6682 8.48633L13.6688 7.48633L13.6694 6.48633C12.9529 6.4859 12.25 6.69125 11.6493 7.07974L12.1923 7.91945ZM13.6688 7.48633V8.48633C14.1178 8.48633 14.5424 8.65952 14.8507 8.95835L15.5467 8.24032L16.2427 7.52228C15.5549 6.85557 14.6285 6.48633 13.6688 6.48633V7.48633ZM15.5467 8.24032L14.8507 8.95835C15.1579 9.25616 15.3246 9.65331 15.3246 10.0606H16.3246H17.3246C17.3246 9.10241 16.9316 8.19001 16.2427 7.52228L15.5467 8.24032Z" fill="#01CC01" mask="url(#path-4-inside-2_130_1735)"/>
<path d="M8.32227 22.8965H8.32324C8.60841 22.8963 8.89063 22.9503 9.15332 23.0557C9.41605 23.1611 9.654 23.3154 9.85352 23.5088C10.053 23.7021 10.2104 23.9311 10.3174 24.1816C10.4243 24.4322 10.4787 24.7005 10.4785 24.9707L10.4727 25.123C10.4456 25.4765 10.3246 25.8191 10.1191 26.1172C9.8841 26.4581 9.54805 26.7259 9.15234 26.8848C8.75662 27.0436 8.32047 27.086 7.89941 27.0049C7.47828 26.9237 7.09351 26.723 6.79297 26.4316C6.49267 26.1405 6.28995 25.7714 6.20801 25.3721C6.12617 24.9729 6.168 24.5586 6.3291 24.1816C6.49035 23.8045 6.76447 23.4797 7.11914 23.25C7.47397 23.0202 7.89267 22.8966 8.32227 22.8965Z" fill="white" stroke="#01CC01"/>
<path d="M19.0205 22.8965H19.0215C19.3066 22.8963 19.5889 22.9503 19.8516 23.0557C20.1143 23.1611 20.3522 23.3154 20.5518 23.5088C20.7512 23.7021 20.9086 23.9311 21.0156 24.1816C21.1226 24.4322 21.1769 24.7005 21.1768 24.9707L21.1709 25.123C21.1439 25.4765 21.0229 25.8191 20.8174 26.1172C20.5823 26.4581 20.2463 26.7259 19.8506 26.8848C19.4549 27.0436 19.0187 27.086 18.5977 27.0049C18.1765 26.9237 17.7917 26.723 17.4912 26.4316C17.1909 26.1405 16.9882 25.7714 16.9062 25.3721C16.8244 24.9729 16.8662 24.5586 17.0273 24.1816C17.1886 23.8045 17.4627 23.4797 17.8174 23.25C18.1722 23.0202 18.5909 22.8966 19.0205 22.8965Z" fill="white" stroke="#01CC01"/>
<mask id="path-8-inside-3_130_1735" fill="white">
<path d="M11.5711 6.00092C11.5714 6.2959 11.4814 6.58435 11.3125 6.82975C11.1437 7.07516 10.9035 7.26648 10.6224 7.37951C10.3413 7.49254 10.0319 7.5222 9.73344 7.46473C9.43496 7.40726 9.16077 7.26524 8.94558 7.05666C8.73039 6.84807 8.58388 6.58229 8.52459 6.29296C8.4653 6.00362 8.49589 5.70374 8.6125 5.43127C8.72911 5.1588 8.92649 4.92599 9.17966 4.7623C9.43283 4.59861 9.7304 4.5114 10.0347 4.51172C10.4421 4.51214 10.8326 4.66917 11.1206 4.94836C11.4086 5.22755 11.5706 5.60609 11.5711 6.00092Z"/>
</mask>
<path d="M11.5711 6.00092C11.5714 6.2959 11.4814 6.58435 11.3125 6.82975C11.1437 7.07516 10.9035 7.26648 10.6224 7.37951C10.3413 7.49254 10.0319 7.5222 9.73344 7.46473C9.43496 7.40726 9.16077 7.26524 8.94558 7.05666C8.73039 6.84807 8.58388 6.58229 8.52459 6.29296C8.4653 6.00362 8.49589 5.70374 8.6125 5.43127C8.72911 5.1588 8.92649 4.92599 9.17966 4.7623C9.43283 4.59861 9.7304 4.5114 10.0347 4.51172C10.4421 4.51214 10.8326 4.66917 11.1206 4.94836C11.4086 5.22755 11.5706 5.60609 11.5711 6.00092Z" fill="white"/>
<path d="M10.0347 4.51172L10.0337 5.51172L10.0347 4.51172ZM11.5711 6.00092L10.5711 6.00202C10.5712 6.09206 10.5439 6.18279 10.4887 6.26287L11.3125 6.82975L12.1363 7.39664C12.419 6.98592 12.5716 6.49975 12.5711 5.99982L11.5711 6.00092ZM11.3125 6.82975L10.4887 6.26287C10.4334 6.34336 10.3513 6.41072 10.2493 6.45171L10.6224 7.37951L10.9955 8.30731C11.4557 8.12224 11.854 7.80696 12.1363 7.39664L11.3125 6.82975ZM10.6224 7.37951L10.2493 6.45171C10.1471 6.4928 10.033 6.50403 9.92251 6.48277L9.73344 7.46473L9.54438 8.44669C10.0309 8.54037 10.5355 8.49229 10.9955 8.30731L10.6224 7.37951ZM9.73344 7.46473L9.92251 6.48277C9.81218 6.46152 9.71496 6.40975 9.64159 6.33862L8.94558 7.05666L8.24957 7.77469C8.60657 8.12074 9.05773 8.35299 9.54438 8.44669L9.73344 7.46473ZM8.94558 7.05666L9.64159 6.33862C9.56854 6.26782 9.52252 6.18144 9.50423 6.09221L8.52459 6.29296L7.54495 6.49371C7.64524 6.98314 7.89224 7.42832 8.24957 7.77469L8.94558 7.05666ZM8.52459 6.29296L9.50423 6.09221C9.48599 6.0032 9.4951 5.91059 9.53185 5.82472L8.6125 5.43127L7.69316 5.03782C7.49669 5.4969 7.44461 6.00404 7.54495 6.49371L8.52459 6.29296ZM8.6125 5.43127L9.53185 5.82472C9.56876 5.73847 9.63345 5.65971 9.72262 5.60206L9.17966 4.7623L8.6367 3.92254C8.21953 4.19227 7.88946 4.57913 7.69316 5.03782L8.6125 5.43127ZM9.17966 4.7623L9.72262 5.60206C9.8121 5.5442 9.92043 5.5116 10.0337 5.51172L10.0347 4.51172L10.0358 3.51172C9.54038 3.51121 9.05356 3.65302 8.6367 3.92254L9.17966 4.7623ZM10.0347 4.51172L10.0337 5.51172C10.186 5.51188 10.3261 5.57089 10.4246 5.66639L11.1206 4.94836L11.8166 4.23033C11.3391 3.76745 10.6981 3.5124 10.0358 3.51172L10.0347 4.51172ZM11.1206 4.94836L10.4246 5.66639C10.5221 5.76088 10.5709 5.88224 10.5711 6.00202L11.5711 6.00092L12.5711 5.99982C12.5703 5.32993 12.2952 4.69422 11.8166 4.23033L11.1206 4.94836Z" fill="#01CC01" mask="url(#path-8-inside-3_130_1735)"/>
<mask id="path-10-inside-4_130_1735" fill="white">
<path d="M18.8865 6.00092C18.8868 6.2959 18.7969 6.58435 18.628 6.82975C18.4591 7.07516 18.2189 7.26648 17.9378 7.37951C17.6568 7.49254 17.3474 7.5222 17.0489 7.46473C16.7504 7.40726 16.4762 7.26524 16.261 7.05666C16.0458 6.84807 15.8993 6.58229 15.84 6.29296C15.7807 6.00362 15.8113 5.70374 15.9279 5.43127C16.0445 5.1588 16.2419 4.92599 16.4951 4.7623C16.7483 4.59861 17.0458 4.5114 17.3502 4.51172C17.7575 4.51214 18.148 4.66917 18.436 4.94836C18.7241 5.22755 18.8861 5.60609 18.8865 6.00092Z"/>
</mask>
<path d="M18.8865 6.00092C18.8868 6.2959 18.7969 6.58435 18.628 6.82975C18.4591 7.07516 18.2189 7.26648 17.9378 7.37951C17.6568 7.49254 17.3474 7.5222 17.0489 7.46473C16.7504 7.40726 16.4762 7.26524 16.261 7.05666C16.0458 6.84807 15.8993 6.58229 15.84 6.29296C15.7807 6.00362 15.8113 5.70374 15.9279 5.43127C16.0445 5.1588 16.2419 4.92599 16.4951 4.7623C16.7483 4.59861 17.0458 4.5114 17.3502 4.51172C17.7575 4.51214 18.148 4.66917 18.436 4.94836C18.7241 5.22755 18.8861 5.60609 18.8865 6.00092Z" fill="white"/>
<path d="M17.3502 4.51172L17.3491 5.51172L17.3502 4.51172ZM18.8865 6.00092L17.8865 6.00202C17.8866 6.09206 17.8593 6.18279 17.8042 6.26287L18.628 6.82975L19.4518 7.39664C19.7344 6.98591 19.8871 6.49974 19.8865 5.99982L18.8865 6.00092ZM18.628 6.82975L17.8042 6.26287C17.7488 6.34335 17.6667 6.41072 17.5648 6.45171L17.9378 7.37951L18.3109 8.30731C18.7712 8.12224 19.1694 7.80696 19.4518 7.39664L18.628 6.82975ZM17.9378 7.37951L17.5648 6.45171C17.4626 6.4928 17.3484 6.50403 17.238 6.48277L17.0489 7.46473L16.8598 8.44669C17.3463 8.54037 17.8509 8.49229 18.3109 8.30731L17.9378 7.37951ZM17.0489 7.46473L17.238 6.48277C17.1276 6.46152 17.0304 6.40974 16.957 6.33862L16.261 7.05666L15.565 7.77469C15.922 8.12074 16.3732 8.353 16.8598 8.44669L17.0489 7.46473ZM16.261 7.05666L16.957 6.33862C16.884 6.26781 16.8379 6.18144 16.8197 6.0922L15.84 6.29296L14.8604 6.49371C14.9607 6.98314 15.2077 7.42832 15.565 7.77469L16.261 7.05666ZM15.84 6.29296L16.8197 6.0922C16.8014 6.0032 16.8105 5.9106 16.8473 5.82473L15.9279 5.43127L15.0086 5.03782C14.8121 5.49689 14.76 6.00404 14.8604 6.49371L15.84 6.29296ZM15.9279 5.43127L16.8473 5.82473C16.8842 5.73848 16.9489 5.65972 17.0381 5.60206L16.4951 4.7623L15.9521 3.92254C15.535 4.19226 15.2049 4.57912 15.0086 5.03782L15.9279 5.43127ZM16.4951 4.7623L17.0381 5.60206C17.1275 5.54421 17.2359 5.5116 17.3491 5.51172L17.3502 4.51172L17.3512 3.51172C16.8558 3.51121 16.369 3.65301 15.9521 3.92254L16.4951 4.7623ZM17.3502 4.51172L17.3491 5.51172C17.5015 5.51188 17.6415 5.57089 17.74 5.6664L18.436 4.94836L19.1321 4.23032C18.6545 3.76745 18.0135 3.5124 17.3512 3.51172L17.3502 4.51172ZM18.436 4.94836L17.74 5.6664C17.8375 5.76088 17.8864 5.88225 17.8865 6.00202L18.8865 6.00092L19.8865 5.99982C19.8858 5.32993 19.6106 4.69422 19.1321 4.23032L18.436 4.94836Z" fill="#01CC01" mask="url(#path-10-inside-4_130_1735)"/>
</svg>
