<svg width="14" height="24" viewBox="0 0 14 24" fill="none" xmlns="http://www.w3.org/2000/svg">
<g clip-path="url(#clip0_542_1223)">
<path d="M7.00001 0C7.77439 0 8.40001 0.670312 8.40001 1.5V3.17344C8.47001 3.18281 8.53564 3.19219 8.60564 3.20625C8.62314 3.21094 8.63626 3.21094 8.65376 3.21562L10.7538 3.62813C11.515 3.77813 12.0181 4.56094 11.8781 5.37187C11.7381 6.18281 11.0075 6.72656 10.2506 6.57656L8.17251 6.16875C6.80314 5.95313 5.59564 6.09844 4.74689 6.45938C3.89814 6.82031 3.55689 7.31719 3.47814 7.77656C3.39064 8.27812 3.45626 8.55937 3.53064 8.73281C3.60939 8.91563 3.77126 9.12187 4.09064 9.35156C4.80376 9.85312 5.89751 10.1813 7.31501 10.5844L7.44189 10.6219C8.69314 10.9781 10.2244 11.4094 11.3619 12.2062C11.9831 12.6422 12.5694 13.2328 12.9325 14.0578C13.3044 14.8969 13.3831 15.8344 13.2125 16.8328C12.9106 18.6141 11.7644 19.8047 10.3425 20.4281C9.74314 20.6906 9.09126 20.8594 8.40001 20.9437V22.5C8.40001 23.3297 7.77439 24 7.00001 24C6.22564 24 5.60001 23.3297 5.60001 22.5V20.8641C5.58251 20.8594 5.56064 20.8594 5.54314 20.8547H5.53439C4.46689 20.6766 2.71251 20.1844 1.53126 19.6219C0.826889 19.2844 0.507514 18.3984 0.822514 17.6437C1.13751 16.8891 1.96439 16.5469 2.66876 16.8844C3.58314 17.3203 5.08814 17.7516 5.95876 17.8969C7.35439 18.1172 8.50501 17.9906 9.28376 17.6484C10.0231 17.325 10.36 16.8563 10.4563 16.2938C10.5394 15.7969 10.4738 15.5109 10.3994 15.3375C10.3163 15.15 10.1544 14.9437 9.83064 14.7141C9.11314 14.2125 8.01501 13.8844 6.59314 13.4813L6.47064 13.4484C5.22376 13.0922 3.69251 12.6562 2.55501 11.8594C1.93376 11.4234 1.35189 10.8281 0.988764 10.0031C0.621264 9.16406 0.546889 8.22656 0.721889 7.22812C1.03689 5.4375 2.28814 4.275 3.71001 3.67031C4.29189 3.42188 4.93064 3.25313 5.60001 3.15469V1.5C5.60001 0.670312 6.22564 0 7.00001 0Z" fill="#01CC01"/>
</g>
<defs>
<clipPath id="clip0_542_1223">
<path d="M0 0H14V24H0V0Z" fill="white"/>
</clipPath>
</defs>
</svg>
