<svg width="40" height="40" viewBox="0 0 40 40" fill="none" xmlns="http://www.w3.org/2000/svg">
<path d="M36.6667 8.33398L33.3333 15.0007L30 8.33398M26.6667 8.33398H23.3333V15.0007H26.6667M23.3333 11.6673H25.8333" stroke="#01CC01" stroke-width="1.5" stroke-linecap="round" stroke-linejoin="round"/>
<path d="M10 15V31.6667C10 32.5507 10.3512 33.3986 10.9763 34.0237C11.6014 34.6488 12.4493 35 13.3333 35H28.3333C29.2174 35 30.0652 34.6488 30.6904 34.0237C31.3155 33.3986 31.6667 32.5507 31.6667 31.6667V23.3333M6.66667 8.33333V5M13.3333 8.33333V5M15 9.33333V11.6667C15 12.5507 14.6488 13.3986 14.0237 14.0237C13.3986 14.6488 12.5507 15 11.6667 15H8.33333C7.44928 15 6.60143 14.6488 5.97631 14.0237C5.35119 13.3986 5 12.5507 5 11.6667V9.33333C5 9.06812 5.10536 8.81376 5.29289 8.62623C5.48043 8.43869 5.73478 8.33333 6 8.33333H14C14.2652 8.33333 14.5196 8.43869 14.7071 8.62623C14.8946 8.81376 15 9.06812 15 9.33333Z" stroke="#01CC01" stroke-width="1.5" stroke-linecap="round"/>
</svg>
