<svg width="24" height="24" viewBox="0 0 24 24" fill="none" xmlns="http://www.w3.org/2000/svg">
<g clip-path="url(#clip0_238_2191)">
<path d="M23.6529 12.2242C23.6529 11.2409 23.5745 10.5234 23.4049 9.7793H12.3745V14.2173H18.8491C18.7186 15.3202 18.0137 16.9811 16.4472 18.0972L16.4253 18.2458L19.9129 20.996L20.1545 21.0205C22.3736 18.9344 23.6529 15.8649 23.6529 12.2242Z" fill="#4285F4"/>
<path d="M12.3746 23.9178C15.5466 23.9178 18.2095 22.8548 20.1546 21.0211L16.4473 18.0978C15.4552 18.8021 14.1237 19.2937 12.3746 19.2937C9.26782 19.2937 6.631 17.2076 5.69105 14.3242L5.55327 14.3361L1.92682 17.193L1.87939 17.3272C3.81132 21.2337 7.77964 23.9178 12.3746 23.9178Z" fill="#34A853"/>
<path d="M5.69099 14.3248C5.44297 13.5807 5.29944 12.7834 5.29944 11.9596C5.29944 11.1357 5.44297 10.3385 5.67794 9.59439L5.67137 9.43592L1.99948 6.5332L1.87934 6.59137C1.0831 8.21247 0.626221 10.0329 0.626221 11.9596C0.626221 13.8863 1.0831 15.7066 1.87934 17.3277L5.69099 14.3248Z" fill="#FBBC05"/>
<path d="M12.3746 4.62403C14.5806 4.62403 16.0687 5.59401 16.9172 6.40461L20.2328 3.10928C18.1965 1.1826 15.5466 0 12.3746 0C7.77964 0 3.81132 2.68406 1.87939 6.59056L5.67799 9.59359C6.63099 6.7102 9.26781 4.62403 12.3746 4.62403Z" fill="#EB4335"/>
</g>
<defs>
<clipPath id="clip0_238_2191">
<rect width="23.04" height="24" fill="white" transform="translate(0.625)"/>
</clipPath>
</defs>
</svg>
