<svg width="25" height="24" viewBox="0 0 25 24" fill="none" xmlns="http://www.w3.org/2000/svg">
<path d="M1.60179 0.0107205C1.66831 0.0103095 1.66831 0.0103095 1.73618 0.00989028C1.88265 0.00908556 2.02912 0.00870835 2.1756 0.00840328C2.27787 0.00808563 2.38014 0.00776791 2.48242 0.00745013C2.69693 0.0068707 2.91145 0.00654797 3.12596 0.00635551C3.39957 0.00605368 3.67317 0.00472934 3.94677 0.00315651C4.15817 0.00212371 4.36956 0.00184114 4.58096 0.00175687C4.68175 0.00159083 4.78254 0.00115112 4.88332 0.000422286C5.71648 -0.00517045 6.37877 0.0355322 7.01665 0.695592C7.34434 1.08696 7.53361 1.57198 7.70781 2.0648C7.73025 2.12728 7.75268 2.18976 7.77579 2.25413C8.11543 3.20322 8.44249 4.15802 8.77191 5.11157C8.91085 5.51366 9.05026 5.91553 9.19004 6.31726C9.40489 6.93483 9.61903 7.5527 9.83274 8.17077C9.89803 8.35948 9.9634 8.54814 10.0288 8.73681C10.933 11.3479 10.933 11.3479 11.2593 12.4425C11.2699 12.4778 11.2805 12.5132 11.2914 12.5496C11.5631 13.4611 11.7432 14.2495 11.4845 15.1878C11.4697 15.2446 11.4549 15.3015 11.4396 15.36C11.3756 15.6048 11.3097 15.8489 11.2439 16.093C11.1693 16.3699 11.0953 16.6469 11.022 16.9242C10.9854 17.0614 10.9479 17.1982 10.9104 17.3351C10.7199 17.9922 10.7199 17.9922 10.7347 18.6711C10.7953 18.773 10.7953 18.773 10.8829 18.8367C11.084 18.8367 11.1915 18.8176 11.3445 18.6683C11.5013 18.4733 11.6363 18.2677 11.7715 18.0538C11.8285 17.9645 11.8855 17.8753 11.9426 17.7861C11.9715 17.7406 12.0004 17.6951 12.0303 17.6483C12.1398 17.4767 12.2504 17.3061 12.3611 17.1355C12.5947 16.7754 12.8261 16.4138 13.0551 16.05C13.3374 15.6015 13.6242 15.1568 13.9121 14.7127C14.0462 14.5056 14.1801 14.2983 14.314 14.091C14.3675 14.0083 14.421 13.9255 14.4744 13.8427C14.5009 13.8017 14.5274 13.7608 14.5547 13.7185C14.7953 13.3461 14.7953 13.3461 14.8756 13.2218C14.9289 13.1394 14.9821 13.0569 15.0354 12.9744C15.1723 12.7623 15.3096 12.5505 15.4476 12.3392C15.5826 12.1323 15.7165 11.9245 15.8495 11.7159C15.8927 11.6482 15.9362 11.5808 15.98 11.5136C16.1744 11.2143 16.3043 10.985 16.2907 10.6077C16.2565 10.475 16.2136 10.4224 16.116 10.3386C15.9595 10.282 15.8145 10.2763 15.6507 10.2756C15.5972 10.2753 15.5436 10.2749 15.4885 10.2745C15.4309 10.2742 15.3733 10.274 15.3139 10.2738C15.1919 10.2725 15.07 10.2712 14.948 10.2698C14.7557 10.2678 14.5634 10.2662 14.3711 10.2655C14.1855 10.2646 13.9999 10.2624 13.8143 10.26C13.7568 10.2601 13.6993 10.2602 13.6401 10.2603C13.2412 10.2535 13.2411 10.2535 13.0447 10.1228C12.8947 9.92713 12.8748 9.77208 12.8781 9.51868C12.9358 9.17286 13.1203 8.88036 13.2838 8.58473C13.3501 8.46459 13.4151 8.34367 13.4797 8.22233C13.575 8.04372 13.6707 7.86552 13.7669 7.68754C14.0071 7.24211 14.2439 6.79446 14.4812 6.34707C14.7064 5.92236 14.9324 5.49817 15.1599 5.07498C15.3472 4.72642 15.5327 4.37672 15.7182 4.02695C16.8392 1.91318 16.8392 1.91318 17.2854 1.10946C17.3045 1.07492 17.3235 1.04039 17.3432 1.00481C17.503 0.719267 17.6553 0.47283 17.9087 0.285176C17.9441 0.258216 17.9796 0.231257 18.0161 0.20348C18.3281 0.0185545 18.6215 0.00356939 18.9673 0.00533163C19.0144 0.00513824 19.0615 0.00494484 19.11 0.00474559C19.2649 0.00426178 19.4198 0.00458086 19.5747 0.00495441C19.6828 0.00488001 19.791 0.00477286 19.8991 0.00463444C20.1255 0.00447195 20.3518 0.00470755 20.5782 0.00522385C20.8678 0.00585223 21.1573 0.00549068 21.4469 0.00482958C21.6701 0.00442994 21.8934 0.0045581 22.1166 0.00484368C22.2234 0.00491709 22.3301 0.00482771 22.4369 0.00457003C22.5863 0.00428842 22.7357 0.00471895 22.8852 0.00533163C22.9508 0.00499653 22.9508 0.00499653 23.0177 0.00465465C23.4111 0.00762838 23.7492 0.063976 24.0644 0.350704C24.2466 0.589566 24.267 0.873654 24.2618 1.17843C24.2184 1.39208 24.1478 1.58887 24.073 1.79104C24.0527 1.8486 24.0324 1.90615 24.0115 1.96545C23.9478 2.14503 23.8827 2.32392 23.8175 2.5028C23.7792 2.61009 23.741 2.71742 23.7028 2.82479C23.6031 3.10472 23.5019 3.38399 23.4003 3.66311C23.2779 3.99957 23.156 4.33629 23.0342 4.67301C23.0208 4.70991 23.0075 4.74681 22.9937 4.78483C22.7409 5.48315 22.4904 6.18247 22.2404 6.88201C22.2212 6.93579 22.202 6.98957 22.1822 7.04497C22.0077 7.53295 21.8333 8.02094 21.6592 8.50903C21.24 9.68366 20.8176 10.8566 20.3869 12.026C20.1471 12.6774 19.9112 13.3304 19.6785 13.985C19.3336 14.9548 18.9843 15.9225 18.6281 16.8872C18.4553 17.3556 18.2844 17.8247 18.116 18.295C18.0784 18.3996 18.0409 18.5043 18.0033 18.6089C17.9492 18.7598 17.8951 18.9107 17.8415 19.0618C17.6711 19.5417 17.4965 20.0167 17.291 20.4794C17.2757 20.514 17.2603 20.5486 17.2445 20.5843C16.6001 21.9988 15.4338 23.1735 14.0918 23.6927C12.729 24.1756 11.0944 24.0935 9.79674 23.4168C8.19881 22.4465 7.33743 20.9125 6.71048 19.0638C6.61545 18.7838 6.51862 18.5045 6.42191 18.2252C6.40256 18.1692 6.38322 18.1132 6.36329 18.0555C6.18448 17.5397 5.99614 17.0288 5.80402 16.519C5.74324 16.3575 5.68249 16.196 5.62178 16.0345C5.60727 15.9959 5.59276 15.9573 5.57781 15.9175C5.41196 15.4752 5.25367 15.0296 5.09534 14.5838C4.94709 14.1673 4.79677 13.7518 4.64462 13.337C4.62555 13.285 4.60647 13.233 4.58681 13.1794C4.49296 12.9237 4.39895 12.668 4.30477 12.4124C4.10395 11.8665 3.90753 11.3188 3.7151 10.7691C3.41052 9.89911 3.09875 9.03241 2.78614 8.16598C2.73932 8.03619 2.69252 7.90639 2.64573 7.77659C2.06005 6.15207 1.46994 4.52961 0.874665 2.90946C0.834992 2.80143 0.795375 2.69338 0.755781 2.58532C0.711218 2.46375 0.666541 2.34223 0.621703 2.22079C0.201323 1.07344 0.201323 1.07344 0.361287 0.611741C0.500315 0.335307 0.653169 0.203113 0.910324 0.0747942C1.13899 0.00513188 1.3666 0.0110695 1.60179 0.0107205Z" fill="#FEFEFE"/>
</svg>
