<svg width="24" height="24" viewBox="0 0 24 24" fill="none" xmlns="http://www.w3.org/2000/svg">
<g clip-path="url(#clip0_542_1220)">
<path d="M9.34082 3.47852C8.89553 3.13902 8.29051 3.17928 7.88672 3.56738V3.56836L3.21973 8.06836L3.21875 8.06934C2.86031 8.41724 2.74854 8.95328 2.90039 9.41406C3.05387 9.87949 3.47489 10.2451 4 10.2451H5.73828L4.8877 13.1143L4.88574 13.1182C4.74222 13.6175 4.9026 14.1887 5.32617 14.5117C5.7438 14.8301 6.30136 14.8145 6.70215 14.4912L6.78027 14.4229L11.4473 9.92285L11.4482 9.9209C11.8066 9.57293 11.9185 9.03692 11.7666 8.57617C11.6132 8.11085 11.1919 7.74527 10.667 7.74512H8.92773L9.7793 4.87695L9.78027 4.87305C9.92235 4.379 9.77257 3.80478 9.33984 3.47852H9.34082ZM20.167 11.4727L19.833 11.3555C18.7015 10.956 17.833 9.74142 17.833 8.25V6.75C17.833 6.6646 17.8649 6.59595 17.9033 6.55273C17.9411 6.51029 17.9764 6.5 18 6.5H19.167V3.75C19.167 3.66465 19.1979 3.59596 19.2363 3.55273C19.2739 3.51041 19.3094 3.50009 19.333 3.5C19.3566 3.5 19.3929 3.51022 19.4307 3.55273C19.469 3.59597 19.5 3.66476 19.5 3.75V6.5H21.833V3.75C21.833 3.6646 21.8649 3.59595 21.9033 3.55273C21.9411 3.51029 21.9764 3.5 22 3.5C22.0236 3.5 22.0589 3.51029 22.0967 3.55273C22.1351 3.59595 22.167 3.6646 22.167 3.75V6.5H23.333C23.3566 6.5 23.3929 6.51022 23.4307 6.55273C23.469 6.59597 23.5 6.66476 23.5 6.75V8.25C23.5 9.74142 22.6315 10.956 21.5 11.3555L21.167 11.4727V17.625C21.167 19.2713 19.9953 20.4998 18.667 20.5C17.3385 20.5 16.167 19.2715 16.167 17.625V16.125C16.167 14.8699 15.2507 13.75 14 13.75H12.833V21.5H13.333C13.7406 21.5 14.167 21.8895 14.167 22.5C14.167 23.1105 13.7406 23.5 13.333 23.5H1.33301C0.925486 23.4998 0.5 23.1104 0.5 22.5C0.5 21.8896 0.925486 21.5002 1.33301 21.5H1.83301V3C1.83301 1.56446 2.85905 0.5 4 0.5H10.667C11.8078 0.500202 12.833 1.5646 12.833 3V12.5H14C15.6951 12.5 17.167 14.066 17.167 16.125V17.625C17.167 18.4676 17.7829 19.25 18.667 19.25C19.5509 19.2498 20.167 18.4675 20.167 17.625V11.4727Z" stroke="#01CC01"/>
</g>
<defs>
<clipPath id="clip0_542_1220">
<path d="M0 0H24V24H0V0Z" fill="white"/>
</clipPath>
</defs>
</svg>
