<svg width="16" height="24" viewBox="0 0 16 24" fill="none" xmlns="http://www.w3.org/2000/svg">
<path d="M15.5 24H0.5V0H15.5V24Z" stroke="#E5E7EB"/>
<path d="M1.25 6.75C1.25 4.95979 1.96116 3.2429 3.22703 1.97703C4.4929 0.711159 6.20979 0 8 0C9.79021 0 11.5071 0.711159 12.773 1.97703C14.0388 3.2429 14.75 4.95979 14.75 6.75C14.75 8.54021 14.0388 10.2571 12.773 11.523C11.5071 12.7888 9.79021 13.5 8 13.5C6.20979 13.5 4.4929 12.7888 3.22703 11.523C1.96116 10.2571 1.25 8.54021 1.25 6.75ZM8 3.75C8.4125 3.75 8.75 3.4125 8.75 3C8.75 2.5875 8.4125 2.25 8 2.25C5.51562 2.25 3.5 4.26562 3.5 6.75C3.5 7.1625 3.8375 7.5 4.25 7.5C4.6625 7.5 5 7.1625 5 6.75C5 5.09531 6.34531 3.75 8 3.75ZM6.5 22.5V14.8641C6.9875 14.9531 7.48906 15 8 15C8.51094 15 9.0125 14.9531 9.5 14.8641V22.5C9.5 23.3297 8.82969 24 8 24C7.17031 24 6.5 23.3297 6.5 22.5Z" fill="#2ECC71"/>
</svg>
