<svg width="40" height="40" viewBox="0 0 40 40" fill="none" xmlns="http://www.w3.org/2000/svg">
<path d="M12.5 31.666C12.5 32.9993 11.3333 34.166 10 34.166C8.66667 34.166 7.5 32.9993 7.5 31.666C7.5 30.3327 8.66667 29.166 10 29.166C11.3333 29.166 12.5 30.3327 12.5 31.666ZM30 29.166C28.6667 29.166 27.5 30.3327 27.5 31.666C27.5 32.9993 28.6667 34.166 30 34.166C31.3333 34.166 32.5 32.9993 32.5 31.666C32.5 30.3327 31.3333 29.166 30 29.166ZM30 24.9993H29.5C32.8333 22.3327 35 17.9993 35 13.3327C35 8.66602 32.8333 4.33268 29.5 1.66602H10.5C7.16667 4.33268 5 8.66602 5 13.3327C5 17.9993 7.16667 22.3327 10.5 24.9993H10C6.33334 24.9993 3.33334 27.9993 3.33334 31.666C3.33334 35.3327 6.33334 38.3327 10 38.3327H30C33.6667 38.3327 36.6667 35.3327 36.6667 31.666C36.6667 27.9993 33.6667 24.9993 30 24.9993ZM8.33334 13.3327C8.33334 10.166 9.66667 7.16602 11.8333 4.99935H28.1667C30.3333 7.16602 31.6667 10.166 31.6667 13.3327C31.6667 19.8327 26.5 24.9993 20 24.9993C13.5 24.9993 8.33334 19.8327 8.33334 13.3327ZM30 34.9994H10C8.16667 34.9994 6.66667 33.4993 6.66667 31.666C6.66667 29.8327 8.16667 28.3327 10 28.3327H30C31.8333 28.3327 33.3333 29.8327 33.3333 31.666C33.3333 33.4993 31.8333 34.9994 30 34.9994ZM21.5 8.83268C21.5 9.99935 22.5 10.9993 23.6667 10.9993C24.8333 10.9993 25.8333 9.99935 25.8333 8.83268C25.8333 7.66602 24.8333 6.66602 23.5 6.66602C22.3333 6.66602 21.5 7.66602 21.5 8.83268ZM14.3333 8.83268C14.3333 9.99935 15.3333 10.9993 16.5 10.9993C17.6667 10.9993 18.6667 9.99935 18.6667 8.83268C18.6667 7.66602 17.6667 6.66602 16.5 6.66602C15.1667 6.66602 14.3333 7.66602 14.3333 8.83268ZM12.8333 16.666C14.5 16.666 15.6667 15.3327 15.6667 13.8327C15.6667 12.3327 14.3333 10.9993 12.8333 10.9993C11.3333 10.9993 10 12.166 10 13.8327C10 15.3327 11.3333 16.666 12.8333 16.666ZM19.3333 19.4993C19.3333 17.9993 18 16.666 16.5 16.666C14.8333 16.666 13.6667 17.9993 13.6667 19.4993C13.6667 21.166 15 22.3327 16.5 22.3327C18 22.3327 19.3333 21.166 19.3333 19.4993ZM20 16.666C21.6667 16.666 22.8333 15.3327 22.8333 13.8327C22.8333 12.3327 21.5 10.9993 20 10.9993C18.5 10.9993 17.1667 12.3327 17.1667 13.8327C17.1667 15.3327 18.5 16.666 20 16.666ZM26.5 19.4993C26.5 17.9993 25.1667 16.666 23.6667 16.666C22 16.666 20.8333 17.9993 20.8333 19.4993C20.8333 21.166 22.1667 22.3327 23.6667 22.3327C25.1667 22.3327 26.5 21.166 26.5 19.4993ZM30 13.8327C30 12.3327 28.6667 10.9993 27.1667 10.9993C25.5 10.9993 24.3333 12.3327 24.3333 13.8327C24.3333 15.4993 25.6667 16.666 27.1667 16.666C28.6667 16.666 30 15.3327 30 13.8327Z" fill="#01CC01"/>
</svg>
