<svg width="21" height="25" viewBox="0 0 21 25" fill="none" xmlns="http://www.w3.org/2000/svg">
<g clip-path="url(#clip0_542_1215)">
<path d="M20.5 10V22.25C20.5 23.216 19.716 24 18.75 24H2.25C1.28395 24 0.5 23.216 0.5 22.25V10H20.5ZM15 1C15.5535 1 16 1.44645 16 2V4H18.75C19.716 4 20.5 4.78395 20.5 5.75V7.5H0.5V5.75C0.5 4.78395 1.28395 4 2.25 4H5V2C5 1.44645 5.44645 1 6 1C6.55355 1 7 1.44645 7 2V4H14V2C14 1.44645 14.4465 1 15 1Z" stroke="#01CC01"/>
</g>
<defs>
<clipPath id="clip0_542_1215">
<path d="M0 0.5H21V24.5H0V0.5Z" fill="white"/>
</clipPath>
</defs>
</svg>
