<svg width="213" height="68" viewBox="0 0 213 68" fill="none" xmlns="http://www.w3.org/2000/svg">
<path d="M12.8271 0.55858C13.3799 0.639821 14.4768 1.33037 14.6699 1.93969L28.2799 40.1151L43.3904 0.55858H56.5353L36.1861 52.6182C33.6589 52.8213 21.8215 53.5443 20.707 52.3013L0.673767 0.566704C4.40313 0.964787 9.27325 0.0223856 12.8359 0.566704L12.8271 0.55858Z" fill="white"/>
<path d="M58.0709 47.2068C47.7866 36.2148 53.6044 15.6932 70.1628 13.4835C89.3186 10.9243 100.7 25.4666 94.1185 41.7474C88.7921 54.9329 67.3022 57.0695 58.0709 47.2068ZM72.1284 22.0057C60.5367 23.988 60.9842 47.4343 77.7444 44.2334C88.2568 42.2267 87.5987 19.3572 72.1284 22.0057Z" fill="white"/>
<path d="M181.096 13.9473L191.617 40.7326L201.805 13.9473H212.326L211.879 16.8801C204.946 29.5863 201.638 48.0525 194.048 60.0112C189.818 66.6812 180.649 69.549 172.97 66.2099L174.234 58.4108C179.964 58.9795 185.291 58.0939 186.045 52.0495L170.259 13.9554H181.105L181.096 13.9473Z" fill="white"/>
<path d="M136.072 3.60547V13.9475C143.372 13.785 146.97 12.5583 145.277 20.9505C144.706 23.7615 138.625 22.0067 136.072 22.4698C136.528 28.2704 135.484 34.7453 136.045 40.4566C136.651 46.5985 140.758 45.1686 145.935 44.3887L145.979 51.9198C140.845 53.7477 132.606 54.6983 128.49 50.4981C127.946 49.9375 125.568 45.5911 125.568 45.2986V22.4779H118.337V13.9556H125.568V3.61359H136.089L136.072 3.60547Z" fill="white"/>
<path d="M112.406 0.558594C113.915 17.1644 112.616 34.0789 113.099 50.7984C113.239 51.4239 112.625 52.8944 112.081 52.8944H102.218C101.674 52.8944 101.06 51.4158 101.2 50.7984C102.7 35.6224 99.3221 17.465 101.2 2.66275C101.279 2.05344 101.498 0.566718 102.218 0.566718H112.406V0.558594Z" fill="white"/>
<path d="M164.985 0.558594V51.9845C164.985 52.0495 164.073 52.8944 164.002 52.8944H154.473V0.558594H164.994H164.985Z" fill="white"/>
</svg>
