<svg width="40" height="40" viewBox="0 0 40 40" fill="none" xmlns="http://www.w3.org/2000/svg">
<path d="M18.8333 33.334L27.1667 17.084H21.3333V6.66732L13 22.9173H18.8333V33.334ZM20 36.6673C17.6945 36.6673 15.5278 36.2295 13.5 35.354C11.4722 34.4784 9.70834 33.2912 8.20834 31.7923C6.70834 30.2923 5.52112 28.5284 4.64668 26.5007C3.77223 24.4729 3.33445 22.3062 3.33334 20.0007C3.33334 17.6951 3.77112 15.5284 4.64668 13.5007C5.52223 11.4729 6.70945 9.70898 8.20834 8.20898C9.70834 6.70898 11.4722 5.52176 13.5 4.64732C15.5278 3.77287 17.6945 3.3351 20 3.33398C22.3056 3.33398 24.4722 3.77176 26.5 4.64732C28.5278 5.52287 30.2917 6.7101 31.7917 8.20898C33.2917 9.70898 34.4795 11.4729 35.355 13.5007C36.2306 15.5284 36.6678 17.6951 36.6667 20.0007C36.6667 22.3062 36.2289 24.4729 35.3533 26.5007C34.4778 28.5284 33.2906 30.2923 31.7917 31.7923C30.2917 33.2923 28.5278 34.4801 26.5 35.3556C24.4722 36.2312 22.3056 36.6684 20 36.6673ZM20 33.334C23.6945 33.334 26.8406 32.0357 29.4383 29.439C32.0361 26.8423 33.3345 23.6962 33.3333 20.0007C33.3333 16.3062 32.035 13.1601 29.4383 10.5623C26.8417 7.96454 23.6956 6.66621 20 6.66732C16.3056 6.66732 13.1595 7.96621 10.5617 10.564C7.9639 13.1618 6.66557 16.3073 6.66668 20.0007C6.66668 23.6951 7.96557 26.8412 10.5633 29.439C13.1611 32.0368 16.3067 33.3351 20 33.334Z" fill="#01CC01"/>
</svg>
