<svg width="23" height="19" viewBox="0 0 23 19" fill="none" xmlns="http://www.w3.org/2000/svg">
<g clip-path="url(#clip0_169_3687)">
<path d="M5.80068 5.33711L4.27842 5.66055L4.27139 10.6668C4.27139 11.5914 4.96748 12.1891 5.89209 12.1891C6.40537 12.1891 6.78154 12.0941 6.98896 11.9816V10.7934C6.78857 10.8742 5.8042 11.1625 5.8042 10.2414V8.01953H6.98896V6.69062H5.8042L5.80068 5.33711ZM8.93311 7.15117L8.83818 6.69062H7.48818V12.0766H9.0456V8.45195C9.41475 7.9668 10.037 8.06172 10.2374 8.125V6.69062C10.0265 6.6168 9.29873 6.47969 8.93311 7.15117ZM12.178 4.60938L10.6101 4.94336V6.21602L12.178 5.88203V4.60938ZM1.57842 8.27617C1.57842 8.03359 1.78232 7.93867 2.10928 7.93516C2.58389 7.93516 3.18857 8.0793 3.66318 8.33594V6.86641C3.14639 6.6625 2.62959 6.58164 2.11279 6.58164C0.847168 6.58164 0.00341797 7.24258 0.00341797 8.34648C0.00341797 10.0762 2.37646 9.79492 2.37646 10.5402C2.37646 10.8285 2.12686 10.9234 1.77881 10.9234C1.26201 10.9234 0.594043 10.709 0.0702148 10.4242V11.8305C0.650293 12.0801 1.2374 12.1855 1.77529 12.1855C3.07256 12.1855 3.96553 11.6301 3.96553 10.5051C3.96553 8.64531 1.57842 8.9793 1.57842 8.27617ZM22.4999 9.44688C22.4999 7.84727 21.7265 6.58516 20.2429 6.58516C18.7593 6.58516 17.8558 7.84727 17.8558 9.43633C17.8558 11.3172 18.921 12.1855 20.4397 12.1855C21.1851 12.1855 21.744 12.0168 22.1694 11.7812V10.607C21.744 10.8215 21.2554 10.9516 20.6366 10.9516C20.0284 10.9516 19.494 10.7371 19.4237 10.0059H22.4788C22.4858 9.925 22.4999 9.59805 22.4999 9.44688ZM19.4097 8.85625C19.4097 8.15313 19.8421 7.85781 20.2323 7.85781C20.6155 7.85781 21.0233 8.15313 21.0233 8.85625H19.4097ZM15.4405 6.58516C14.8288 6.58516 14.4351 6.87344 14.2171 7.07383L14.1362 6.68711H12.7616V13.8871L14.3226 13.5566L14.3261 11.7918C14.5511 11.957 14.8851 12.1855 15.43 12.1855C16.5479 12.1855 17.5675 11.3699 17.5675 9.38711C17.571 7.57305 16.5374 6.58516 15.4405 6.58516ZM15.0679 10.8918C14.7022 10.8918 14.4843 10.7582 14.3331 10.5965L14.3226 8.27617C14.4843 8.09688 14.7093 7.9668 15.0679 7.9668C15.6374 7.9668 16.0312 8.60664 16.0312 9.42227C16.0347 10.2625 15.6479 10.8918 15.0679 10.8918ZM10.6136 12.0766H12.1815V6.69062H10.6136V12.0766Z" fill="#60A5FA"/>
</g>
<defs>
<clipPath id="clip0_169_3687">
<path d="M0 0.25H22.5V18.25H0V0.25Z" fill="white"/>
</clipPath>
</defs>
</svg>
