<svg width="39" height="40" viewBox="0 0 39 40" fill="none" xmlns="http://www.w3.org/2000/svg">
<path d="M36.37 25.907C36.0783 25.8303 36.0717 25.6753 36.0367 19.012L36 12.1953H27.8583L27.8467 17.767L27.4833 17.857C26.8417 18.0236 26.1283 18.9336 25.5467 20.337C24.5933 22.637 24.1433 22.902 24.0333 21.232C23.9233 19.6003 23.915 19.5653 23.3667 19.1153C22.9983 18.8086 22.8333 18.7453 22.7467 18.882C22.66 19.0186 22.63 18.9936 22.6283 18.8136C22.6283 18.302 22.3567 18.417 22.21 18.9936C22.0883 19.4753 22.1 19.5903 22.2683 19.5903C22.3316 19.583 22.39 19.5529 22.4326 19.5057C22.4752 19.4584 22.4992 19.3973 22.5 19.3336C22.5167 19.0836 22.52 19.0836 22.585 19.3336C22.635 19.5186 22.8117 19.5986 23.2033 19.607C23.505 19.607 23.6683 19.652 23.565 19.6936C23.5427 19.699 23.5218 19.7094 23.504 19.7239C23.4862 19.7384 23.4719 19.7568 23.4621 19.7776C23.4524 19.7984 23.4474 19.8211 23.4476 19.8441C23.4478 19.8671 23.4532 19.8897 23.4633 19.9103C23.5112 20.1295 23.4972 20.3577 23.4227 20.5694C23.3482 20.781 23.2163 20.9677 23.0417 21.1086C21.7509 21.3771 20.4213 21.4014 19.1217 21.1803L18.6733 20.987L19.3783 20.5353C19.8782 20.244 20.4185 20.0283 20.9817 19.8953C21.9467 19.6903 21.9267 19.717 22.0683 18.3953C22.1067 18.0486 22.17 18.0203 22.9767 17.9986C24.1433 17.9653 24.5517 17.7786 23.7517 17.6436L23.155 17.542L23.715 17.5203C24.715 17.4836 24.34 16.842 23.2433 16.7303C22.7983 16.6853 22.7183 16.7303 22.5917 17.107C22.4817 17.4303 22.4967 17.567 22.6517 17.6636C22.8067 17.7603 22.78 17.7953 22.5483 17.797C22.075 17.797 21.8233 17.5103 21.3817 16.4536C21.1937 15.9836 20.9592 15.5336 20.6817 15.1103C20.4917 14.8686 20.5683 15.132 20.8983 15.8586C21.1283 16.3468 21.3303 16.8476 21.5033 17.3586L21.5967 17.7286L14.3267 17.6836C9.835 17.6553 6.895 17.6936 6.635 17.7853C5.91333 18.037 5.98833 17.4653 6.92333 15.5803C7.08935 15.2932 7.21869 14.9863 7.30833 14.667C6.84283 15.253 6.47169 15.9081 6.20833 16.6086C5.835 17.5103 5.55 17.8103 5.08167 17.792C4.915 17.792 4.85833 17.747 4.96167 17.7053C5.205 17.607 5.20167 16.9886 4.96167 16.7853C4.47741 16.6652 3.96567 16.7318 3.52833 16.972C3.15167 17.2036 3.36167 17.5053 3.92167 17.5253L4.48167 17.547L3.88333 17.6486C3.08167 17.7836 3.50333 17.982 4.665 18.0053L5.52333 18.027L5.62333 18.7303C5.65446 19.0195 5.71877 19.3042 5.815 19.5786C6.08697 19.7432 6.38995 19.8498 6.705 19.892C7.24407 20.0238 7.75996 20.2368 8.235 20.5236L8.96167 20.9886L8.48833 21.1836C7.3024 21.3735 6.09578 21.3971 4.90333 21.2536C4.55833 21.2253 4.25667 20.762 4.25667 20.2536C4.25667 19.6986 4.10667 19.6086 3.79833 19.9803C3.49252 21.7862 3.45882 23.6278 3.69833 25.4436C3.8 25.4586 4.28667 25.4803 4.78 25.4936C5.27333 25.507 6.92 25.552 8.44667 25.597C9.97333 25.642 10.655 25.6503 9.97667 25.617C8.87333 25.562 8.745 25.5253 8.745 25.2636C8.745 25.002 8.87833 24.9703 13.885 24.9703C18.9183 24.9703 19.0217 24.9703 18.9467 25.2636C18.88 25.522 18.7133 25.562 17.58 25.607C16.3183 25.6553 16.325 25.657 17.9317 25.687C19.7302 25.6927 21.527 25.5774 23.31 25.342C23.655 25.287 23.6883 25.3003 23.4583 25.4003C23.1767 25.5236 23.1817 25.5353 23.5333 25.6153C23.7383 25.6636 23.5183 25.6753 23.045 25.6453C22.5717 25.6153 22.2117 25.6453 22.26 25.712C22.45 26.0186 12.435 26.182 7.66333 25.9503C6.89575 25.952 6.12984 25.8784 5.37667 25.7303C5.41167 25.672 5.04333 25.6286 4.555 25.6336C4.06667 25.6386 3.66833 25.7103 3.67 25.8003C3.67 26.182 3.96833 26.312 4.94 26.3653L5.98167 26.422L4.82333 26.4103L3.665 26.397V26.8186C3.66715 27.0635 3.71992 27.3052 3.82 27.5286C3.95167 27.7736 4.14 27.817 5.08333 27.817C6.02667 27.817 6.21667 27.7736 6.34833 27.5286C6.55833 27.1353 6.54333 26.6636 6.31667 26.572C6.21333 26.5303 9.59167 26.492 13.8167 26.487C18.0417 26.482 21.4217 26.5336 21.3167 26.6003C21.095 26.7403 21.2233 27.5186 21.4967 27.702C22.2568 27.8717 23.0473 27.8494 23.7967 27.637C23.9266 27.4244 23.9893 27.1775 23.9767 26.9286V26.397L22.81 26.4103L21.6533 26.422L22.73 26.3653L23.8083 26.3103L23.9617 25.757C24.0696 25.2233 24.1215 24.6798 24.1167 24.1353C24.1167 23.0753 24.1167 23.0636 24.6333 22.762C25.4202 22.068 25.9742 21.1486 26.22 20.1286C26.535 19.2853 27.26 18.4053 27.64 18.4053C27.8167 18.4053 27.8517 19.002 27.8517 22.072C27.8517 25.652 27.8517 25.752 27.53 26.0053C27.4199 26.072 27.3372 26.1758 27.2969 26.298C27.2565 26.4202 27.2612 26.5529 27.31 26.672L27.41 27.0703H36.6667V26.5336C36.6667 26.112 36.5967 25.967 36.37 25.907ZM20.9067 18.0903C21.1833 17.8886 21.1917 17.892 21.0017 18.1336C20.9152 18.2599 20.7872 18.3519 20.64 18.3936C20.555 18.3936 20.5117 18.3753 20.5467 18.352C20.5817 18.3286 20.7433 18.212 20.9067 18.0903ZM19.4883 19.5153C19.6601 19.3177 19.8554 19.142 20.07 18.992C20.1117 18.992 19.9167 19.227 19.6383 19.5153C19.4654 19.7113 19.2702 19.8863 19.0567 20.037C19.015 20.037 19.21 19.802 19.4883 19.5153ZM7.68833 19.142C7.42263 18.8694 7.18736 18.5688 6.98667 18.2453C7.2944 18.5201 7.57872 18.82 7.83667 19.142C8.10189 19.4144 8.33713 19.7144 8.53833 20.037C8.23086 19.7625 7.94656 19.4632 7.68833 19.142ZM21.2433 22.0303C21.3643 21.9887 21.4957 21.9887 21.6167 22.0303C21.72 22.072 21.635 22.1053 21.43 22.1053C21.225 22.1053 21.1417 22.072 21.2433 22.0303ZM21.2433 22.627C21.3643 22.5853 21.4957 22.5853 21.6167 22.627C21.72 22.6686 21.635 22.7036 21.43 22.7036C21.225 22.7036 21.1417 22.667 21.2433 22.627ZM6.76333 22.7736C6.80829 22.7515 6.85808 22.741 6.90815 22.743C6.95823 22.745 7.00699 22.7596 7.05 22.7853C7.1 22.8353 7.01167 22.8703 6.85333 22.8636C6.695 22.857 6.645 22.822 6.76333 22.7736ZM6.16667 22.027C6.21133 22.0048 6.26085 21.9943 6.31066 21.9963C6.36047 21.9984 6.40897 22.0129 6.45167 22.0386C6.50167 22.0886 6.41333 22.1236 6.25667 22.117C6.1 22.1103 6.04667 22.0753 6.16667 22.027ZM6.16667 22.6236C6.21153 22.6022 6.26094 22.5921 6.31061 22.5941C6.36029 22.5961 6.40871 22.6103 6.45167 22.6353C6.50167 22.6853 6.41333 22.722 6.25667 22.7153C6.1 22.7086 6.04667 22.667 6.16667 22.6236ZM5.59667 22.5536C5.39167 22.5536 5.30667 22.5203 5.41 22.4786C5.53096 22.437 5.66237 22.437 5.78333 22.4786C5.88667 22.5203 5.80167 22.5536 5.59667 22.5536ZM4.625 21.7203C4.87708 21.7349 5.12714 21.774 5.37167 21.837C5.775 21.9386 5.78333 21.952 5.44667 21.9536C5.19376 21.9475 4.94274 21.9083 4.7 21.837C4.40833 21.737 4.39167 21.7103 4.625 21.7136V21.7203ZM5.10833 22.3436C5.15667 22.3936 5.07 22.4286 4.91167 22.422C4.75333 22.4153 4.70167 22.3803 4.82167 22.332C4.86579 22.3083 4.91514 22.2961 4.96521 22.2964C5.01528 22.2966 5.06449 22.3095 5.10833 22.3336V22.3436ZM4.51 22.1953C4.56 22.2436 4.47167 22.2803 4.315 22.2736C4.15833 22.267 4.105 22.2303 4.22333 22.1836C4.26774 22.1605 4.31723 22.1488 4.3673 22.1497C4.41738 22.1506 4.46643 22.164 4.51 22.1886V22.1953ZM3.87833 21.3836C4.045 21.5036 4.21167 21.622 4.24 21.6453C4.26833 21.6686 4.24 21.687 4.14667 21.687C3.99906 21.6451 3.87099 21.5524 3.785 21.4253C3.595 21.177 3.60167 21.167 3.87833 21.377V21.3836ZM4.16667 25.4036C4 25.4036 3.95667 25.3603 4.07667 25.3136C4.12162 25.2915 4.17141 25.281 4.22149 25.283C4.27156 25.285 4.32033 25.2996 4.36333 25.3253C4.41 25.3753 4.32167 25.4103 4.16667 25.4036ZM6.345 25.4036C4.50167 25.2036 4.105 24.912 4.105 23.767C4.105 23.3553 4.12667 23.342 4.665 23.4336C4.97333 23.482 5.56 23.6103 5.97167 23.7153L6.71833 23.907L6.065 23.8236C5.565 23.7586 5.42833 23.7836 5.48 23.942C5.53904 24.0227 5.61375 24.0908 5.69965 24.142C5.78555 24.1933 5.8809 24.2267 5.98 24.2403L6.41667 24.3336L6.005 24.352C5.78 24.362 5.595 24.437 5.595 24.5186C5.595 24.6003 5.78 24.677 6.005 24.6853C6.35833 24.702 6.36833 24.7153 6.08 24.7703C5.45 24.892 5.68833 25.262 6.39833 25.262C6.77073 25.2631 7.14244 25.2938 7.51 25.3536C7.94167 25.4403 7.96833 25.4203 7.93667 25.0203C7.905 24.6203 7.85 24.5853 7.16 24.5036L6.41667 24.4153L7.08333 24.3803L7.75 24.3453L7.22833 24.1303C6.72833 23.9286 6.72833 23.922 7.15333 24.0003C7.41802 24.0373 7.65998 24.17 7.83349 24.3733C8.00699 24.5766 8.10002 24.8364 8.095 25.1036C8.05333 25.557 7.92167 25.5803 6.34333 25.4086L6.345 25.4036ZM6.83333 24.8586C6.98016 24.8191 7.13484 24.8191 7.28167 24.8586C7.38333 24.9003 7.26333 24.9303 7.01667 24.9286C6.77 24.927 6.68667 24.902 6.83333 24.8636V24.8586ZM14.14 24.3253C12.4128 24.4686 10.6746 24.4076 8.96167 24.1436C7.83667 23.7353 7.71333 23.1536 8.55833 22.2486C8.94251 21.7861 9.49209 21.4919 10.09 21.4286C12.7344 20.9753 15.4398 21.0143 18.07 21.5436C18.4825 21.6856 18.8559 21.9225 19.16 22.2353C19.3309 22.4107 19.4607 22.6219 19.54 22.8536L19.565 22.877H19.545C19.6145 23.0791 19.6125 23.2989 19.5394 23.4997C19.4663 23.7005 19.3265 23.8702 19.1433 23.9803C18.7383 24.282 18.53 24.297 14.1383 24.3336L14.14 24.3253ZM21.7883 25.3253C21.2233 25.3786 20.5217 25.4553 20.2317 25.492C20.0211 25.5411 19.8009 25.5296 19.5967 25.4586C19.44 25.302 19.4667 24.8036 19.63 24.8036C19.86 24.8036 19.9633 25.072 19.7517 25.1453C19.2983 25.312 19.8033 25.3703 20.8233 25.277C21.9517 25.1753 22.4117 24.8803 21.6283 24.762L21.2083 24.7003L21.6183 24.677C21.845 24.6653 22.03 24.592 22.03 24.5103C22.03 24.4286 21.845 24.3436 21.6183 24.3086C21.2367 24.2503 21.2417 24.2453 21.6933 24.2236C22.0267 24.2086 22.1783 24.1286 22.1783 23.962C22.1783 23.692 21.7383 23.7336 20.525 24.1136L19.8583 24.322L20.525 24.3603L21.1917 24.3986L20.445 24.4886C19.5717 24.5936 19.52 24.5803 19.76 24.2903C20.8014 23.8456 21.8988 23.5456 23.0217 23.3986C23.5033 23.3136 23.5067 23.3186 23.5067 23.9136C23.5217 24.8486 23.0717 25.2136 21.7867 25.3336L21.7883 25.3253ZM20.4267 24.8553C20.5735 24.8158 20.7282 24.8158 20.875 24.8553C20.975 24.897 20.8567 24.927 20.61 24.9253C20.3633 24.9236 20.28 24.902 20.425 24.8636L20.4267 24.8553ZM22.0017 22.467C22.0466 22.4448 22.0964 22.4343 22.1465 22.4363C22.1966 22.4384 22.2453 22.4529 22.2883 22.4786C22.3367 22.5286 22.25 22.5636 22.0917 22.557C21.9333 22.5503 21.88 22.522 22 22.4753L22.0017 22.467ZM22.5983 22.317C22.6433 22.2948 22.6931 22.2843 22.7432 22.2863C22.7932 22.2884 22.842 22.3029 22.885 22.3286C22.935 22.3786 22.8467 22.4136 22.69 22.407C22.5333 22.4003 22.4783 22.3736 22.5967 22.3336L22.5983 22.317ZM23.6167 21.637C23.2672 21.7613 22.904 21.843 22.535 21.8803L21.805 21.9636L22.66 21.7653C23.0385 21.6909 23.4037 21.56 23.7433 21.377C23.8683 21.2736 23.9717 21.252 23.9717 21.332C23.9717 21.412 23.81 21.5553 23.615 21.6453L23.6167 21.637ZM34.7267 17.192H29.2617L29.2733 14.042H34.725L34.7267 17.192ZM4.71667 18.847C4.37957 19.0436 4.0659 19.2779 3.78167 19.5453C3.605 19.7636 3.615 19.782 3.85333 19.692C4.10171 19.6223 4.3587 19.588 4.61667 19.5903C5.065 19.5903 5.10167 19.5536 5.055 19.1786C5.00833 18.8036 5.01167 18.7903 5.11833 19.1303C5.164 19.3107 5.27899 19.4658 5.43833 19.562C5.58167 19.6086 5.605 19.552 5.545 19.3736C5.48189 19.1741 5.44875 18.9663 5.44667 18.757V18.397L4.71667 18.847ZM8.31667 14.3436C12.2232 13.9968 16.1544 14.0359 20.0533 14.4603C20.2017 14.512 20.16 14.4353 19.95 14.2803C17.9739 13.7553 15.9294 13.5339 13.8867 13.6236C11.8174 13.5598 9.74886 13.7705 7.735 14.2503C7.55667 14.4286 7.64 14.442 8.31667 14.3436ZM18.305 21.6803H16.405C14.6383 21.6803 14.4783 21.7053 14.145 22.0136L13.7867 22.347L13.5133 22.0136C13.2567 21.6953 13.1333 21.6803 11.2833 21.6803H9.33333L8.8 22.167C8.1 22.8136 8.00833 23.352 8.52833 23.7603C8.95667 24.0936 9.47667 24.1636 9.72667 23.9136C12.4667 23.686 15.2212 23.6933 17.96 23.9353C18.1757 24.0278 18.4142 24.0536 18.6447 24.0094C18.8752 23.9651 19.0872 23.8528 19.2533 23.687C19.6683 23.272 19.53 23.0503 18.7783 22.922C17.9133 22.7736 9.99833 22.7553 8.95667 22.9053C8.32833 22.992 8.27 22.982 8.58333 22.837C11.9652 22.6155 15.3571 22.5921 18.7417 22.767L19.5433 22.8786V22.8586L18.9383 22.2803L18.305 21.6803Z" fill="#01CC01"/>
</svg>
