<svg width="28" height="38" viewBox="0 0 28 38" fill="none" xmlns="http://www.w3.org/2000/svg">
<g filter="url(#filter0_d_498_290)">
<path d="M7.22938 21.1058H9.1998L6.71991 30.6321C6.6767 30.7912 6.66811 30.9592 6.69484 31.1226C6.72157 31.286 6.78288 31.4403 6.87387 31.5732C6.96485 31.7061 7.083 31.8139 7.21887 31.888C7.35475 31.9621 7.50459 32.0005 7.65643 32C7.78624 32.0006 7.91483 31.9727 8.03454 31.9178C8.15426 31.8629 8.26263 31.7822 8.35319 31.6805L17.6883 21.4416C17.837 21.2801 17.9383 21.0739 17.9795 20.8492C18.0206 20.6245 17.9997 20.3915 17.9193 20.1799C17.839 19.9682 17.7029 19.7875 17.5284 19.6606C17.3538 19.5338 17.1487 19.4666 16.9391 19.4676H15.1036L17.3512 10.8014C17.4355 10.4743 17.4496 10.1304 17.3922 9.79649C17.3348 9.46256 17.2075 9.14767 17.0204 8.87642C16.8332 8.60517 16.5912 8.38492 16.3133 8.23289C16.0353 8.08085 15.729 8.00114 15.4182 8H10.5484C10.1116 8.00243 9.68737 8.15933 9.33896 8.44723C8.99055 8.73513 8.73672 9.13858 8.61541 9.59727L6.04563 19.4266C5.99468 19.624 5.98627 19.8316 6.02106 20.0331C6.05585 20.2347 6.13289 20.4246 6.24614 20.5881C6.35938 20.7516 6.50575 20.8842 6.67375 20.9754C6.84175 21.0667 7.02681 21.1141 7.21439 21.114L7.22938 21.1058Z" fill="white"/>
</g>
<defs>
<filter id="filter0_d_498_290" x="2" y="0" width="26" height="38" filterUnits="userSpaceOnUse" color-interpolation-filters="sRGB">
<feFlood flood-opacity="0" result="BackgroundImageFix"/>
<feColorMatrix in="SourceAlpha" type="matrix" values="0 0 0 0 0 0 0 0 0 0 0 0 0 0 0 0 0 0 127 0" result="hardAlpha"/>
<feOffset dx="3" dy="-1"/>
<feGaussianBlur stdDeviation="3.5"/>
<feComposite in2="hardAlpha" operator="out"/>
<feColorMatrix type="matrix" values="0 0 0 0 1 0 0 0 0 1 0 0 0 0 1 0 0 0 0.69 0"/>
<feBlend mode="normal" in2="BackgroundImageFix" result="effect1_dropShadow_498_290"/>
<feBlend mode="normal" in="SourceGraphic" in2="effect1_dropShadow_498_290" result="shape"/>
</filter>
</defs>
</svg>
