<svg width="34" height="29" viewBox="0 0 34 29" fill="none" xmlns="http://www.w3.org/2000/svg">
<mask id="path-1-inside-1_130_1722" fill="white">
<path d="M28.1973 0.230469H4.98003C1.81007 3.42442 0.0484989 7.68981 0.069025 12.1218C0.069025 21.3497 7.46508 28.8403 16.5895 28.8403C25.7139 28.8403 33.1067 21.3625 33.1067 12.1218C33.1277 7.69003 31.3667 3.42467 28.1973 0.230469Z"/>
</mask>
<path d="M4.98003 0.230469V-0.769531H4.56361L4.27027 -0.473968L4.98003 0.230469ZM0.069025 12.1218H1.06904L1.06901 12.1172L0.069025 12.1218ZM33.1067 12.1218L32.1067 12.1171V12.1218H33.1067ZM28.1973 0.230469V-0.769531H4.98003V0.230469V1.23047H28.1973V0.230469ZM4.98003 0.230469L4.27027 -0.473968C0.916482 2.90519 -0.952741 7.42439 -0.930964 12.1264L0.069025 12.1218L1.06901 12.1172C1.04974 7.95523 2.70365 3.94365 5.6898 0.934906L4.98003 0.230469ZM0.069025 12.1218H-0.930975C-0.930975 21.8905 6.90137 29.8403 16.5895 29.8403V28.8403V27.8403C8.02879 27.8403 1.06903 20.809 1.06903 12.1218H0.069025ZM16.5895 28.8403V29.8403C26.2774 29.8403 34.1067 21.9035 34.1067 12.1218H33.1067H32.1067C32.1067 20.8214 25.1505 27.8403 16.5895 27.8403V28.8403ZM33.1067 12.1218L34.1067 12.1265C34.1289 7.42473 32.2604 2.90555 28.9072 -0.473873L28.1973 0.230469L27.4875 0.934811C30.4731 3.94379 32.1264 7.95534 32.1067 12.1171L33.1067 12.1218Z" fill="#121C24" mask="url(#path-1-inside-1_130_1722)"/>
<path d="M7.29785 10.9727C7.68891 10.9727 8.07604 11.0476 8.43652 11.1924C8.79683 11.3371 9.12321 11.5486 9.39746 11.8145C9.67169 12.0803 9.88856 12.395 10.0361 12.7402C10.1837 13.0855 10.2598 13.4553 10.2598 13.8281C10.26 14.3898 10.0882 14.9405 9.76465 15.4102C9.44099 15.88 8.97886 16.2485 8.43555 16.4668C7.89225 16.685 7.29361 16.7431 6.71582 16.6318C6.13793 16.5205 5.60887 16.2456 5.19531 15.8447C4.78193 15.444 4.50272 14.9351 4.38965 14.3838C4.27663 13.8327 4.3343 13.2613 4.55664 12.7412C4.77909 12.221 5.15693 11.7737 5.64453 11.458C6.07144 11.1817 6.56548 11.0171 7.07715 10.9805L7.29785 10.9727Z" fill="white" stroke="#121C24"/>
<mask id="path-4-inside-2_130_1722" fill="white">
<path d="M20.0513 13.8281C20.0513 14.4917 19.8483 15.1404 19.468 15.6922C19.0877 16.2439 18.5471 16.674 17.9147 16.928C17.2823 17.182 16.5863 17.2486 15.9149 17.1192C15.2434 16.9899 14.6266 16.6705 14.1424 16.2014C13.6582 15.7323 13.3284 15.1345 13.1946 14.4837C13.0609 13.8329 13.1292 13.1583 13.391 12.5451C13.6527 11.932 14.0962 11.4078 14.6652 11.0389C15.2343 10.67 15.9034 10.473 16.588 10.4727C17.5062 10.4727 18.3869 10.8261 19.0363 11.4554C19.6858 12.0846 20.0508 12.9381 20.0513 13.8281Z"/>
</mask>
<path d="M20.0513 13.8281C20.0513 14.4917 19.8483 15.1404 19.468 15.6922C19.0877 16.2439 18.5471 16.674 17.9147 16.928C17.2823 17.182 16.5863 17.2486 15.9149 17.1192C15.2434 16.9899 14.6266 16.6705 14.1424 16.2014C13.6582 15.7323 13.3284 15.1345 13.1946 14.4837C13.0609 13.8329 13.1292 13.1583 13.391 12.5451C13.6527 11.932 14.0962 11.4078 14.6652 11.0389C15.2343 10.67 15.9034 10.473 16.588 10.4727C17.5062 10.4727 18.3869 10.8261 19.0363 11.4554C19.6858 12.0846 20.0508 12.9381 20.0513 13.8281Z" fill="white"/>
<path d="M16.588 10.4727V9.47266L16.5875 9.47266L16.588 10.4727ZM20.0513 13.8281L19.0513 13.8281C19.0513 14.2869 18.9111 14.738 18.6446 15.1247L19.468 15.6922L20.2914 16.2597C20.7855 15.5428 21.0513 14.6965 21.0513 13.8281H20.0513ZM19.468 15.6922L18.6446 15.1247C18.3778 15.5117 17.9954 15.818 17.542 16.0001L17.9147 16.928L18.2874 17.856C19.0989 17.53 19.7975 16.9762 20.2914 16.2597L19.468 15.6922ZM17.9147 16.928L17.542 16.0001C17.0884 16.1823 16.5875 16.2304 16.104 16.1373L15.9149 17.1192L15.7257 18.1012C16.5851 18.2667 17.4761 18.1818 18.2874 17.856L17.9147 16.928ZM15.9149 17.1192L16.104 16.1373C15.6206 16.0442 15.1807 15.8149 14.8382 15.4832L14.1424 16.2014L13.4466 16.9196C14.0725 17.526 14.8662 17.9356 15.7257 18.1012L15.9149 17.1192ZM14.1424 16.2014L14.8382 15.4832C14.4962 15.1517 14.2668 14.7332 14.1742 14.2824L13.1946 14.4837L12.2151 14.685C12.39 15.5358 12.8203 16.3128 13.4466 16.9196L14.1424 16.2014ZM13.1946 14.4837L14.1742 14.2824C14.0816 13.8318 14.1286 13.3643 14.3107 12.9378L13.391 12.5451L12.4713 12.1525C12.1299 12.9523 12.0402 13.8341 12.2151 14.685L13.1946 14.4837ZM13.391 12.5451L14.3107 12.9378C14.4929 12.5108 14.8039 12.1408 15.2092 11.878L14.6652 11.0389L14.1212 10.1998C13.3884 10.6749 12.8125 11.3532 12.4713 12.1525L13.391 12.5451ZM14.6652 11.0389L15.2092 11.878C15.6147 11.6151 16.0948 11.4729 16.5884 11.4727L16.588 10.4727L16.5875 9.47266C15.712 9.47306 14.8538 9.72495 14.1212 10.1998L14.6652 11.0389ZM16.588 10.4727L16.588 11.4727C17.2509 11.4727 17.8808 11.7282 18.3405 12.1736L19.0363 11.4554L19.7321 10.7372C18.893 9.9241 17.7615 9.47266 16.588 9.47266V10.4727ZM19.0363 11.4554L18.3405 12.1736C18.7991 12.6179 19.051 13.2139 19.0513 13.8286L20.0513 13.8281L21.0513 13.8276C21.0507 12.6622 20.5724 11.5512 19.7321 10.7372L19.0363 11.4554Z" fill="#121C24" mask="url(#path-4-inside-2_130_1722)"/>
<mask id="path-6-inside-3_130_1722" fill="white">
<path d="M15.4966 20.7168C15.4966 21.3802 15.2937 22.0288 14.9135 22.5805C14.5334 23.1322 13.993 23.5623 13.3608 23.8164C12.7285 24.0705 12.0327 24.1372 11.3614 24.0081C10.69 23.8791 10.0732 23.5599 9.58888 23.0912C9.10457 22.6224 8.77448 22.0249 8.64036 21.3743C8.50624 20.7238 8.57409 20.0492 8.83534 19.436C9.09659 18.8228 9.53951 18.2984 10.1081 17.9291C10.6768 17.5599 11.3455 17.3623 12.03 17.3613C12.9481 17.3613 13.8286 17.7149 14.4778 18.3441C15.1269 18.9734 15.4917 19.8269 15.4917 20.7168"/>
</mask>
<path d="M15.4966 20.7168C15.4966 21.3802 15.2937 22.0288 14.9135 22.5805C14.5334 23.1322 13.993 23.5623 13.3608 23.8164C12.7285 24.0705 12.0327 24.1372 11.3614 24.0081C10.69 23.8791 10.0732 23.5599 9.58888 23.0912C9.10457 22.6224 8.77448 22.0249 8.64036 21.3743C8.50624 20.7238 8.57409 20.0492 8.83534 19.436C9.09659 18.8228 9.53951 18.2984 10.1081 17.9291C10.6768 17.5599 11.3455 17.3623 12.03 17.3613C12.9481 17.3613 13.8286 17.7149 14.4778 18.3441C15.1269 18.9734 15.4917 19.8269 15.4917 20.7168" fill="white"/>
<path d="M12.03 17.3613V16.3613L12.0286 16.3613L12.03 17.3613ZM15.4966 20.7168L14.4966 20.7168C14.4966 21.1755 14.3565 21.6265 14.0901 22.0131L14.9135 22.5805L15.737 23.1479C16.2309 22.4311 16.4966 21.585 16.4966 20.7168L15.4966 20.7168ZM14.9135 22.5805L14.0901 22.0131C13.8234 22.4001 13.4411 22.7064 12.9879 22.8885L13.3608 23.8164L13.7337 24.7443C14.545 24.4182 15.2433 23.8643 15.737 23.1479L14.9135 22.5805ZM13.3608 23.8164L12.9879 22.8885C12.5344 23.0708 12.0337 23.1191 11.5502 23.0261L11.3614 24.0081L11.1726 24.9902C12.0318 25.1554 12.9226 25.0702 13.7337 24.7443L13.3608 23.8164ZM11.3614 24.0081L11.5502 23.0261C11.0669 22.9332 10.6269 22.7042 10.2844 22.3726L9.58888 23.0912L8.89339 23.8097C9.5195 24.4157 10.3132 24.8249 11.1726 24.9902L11.3614 24.0081ZM9.58888 23.0912L10.2844 22.3726C9.94219 22.0414 9.71268 21.6231 9.61976 21.1724L8.64036 21.3743L7.66096 21.5763C7.83629 22.4267 8.26694 23.2033 8.89339 23.8097L9.58888 23.0912ZM8.64036 21.3743L9.61976 21.1724C9.5269 20.722 9.57357 20.2546 9.75532 19.828L8.83534 19.436L7.91535 19.0441C7.5746 19.8439 7.48558 20.7255 7.66096 21.5763L8.64036 21.3743ZM8.83534 19.436L9.75532 19.828C9.93724 19.401 10.2478 19.0308 10.6528 18.7678L10.1081 17.9291L9.56348 17.0905C8.83118 17.5661 8.25594 18.2446 7.91535 19.0441L8.83534 19.436ZM10.1081 17.9291L10.6528 18.7678C11.058 18.5046 11.5378 18.362 12.0314 18.3613L12.03 17.3613L12.0286 16.3613C11.1533 16.3625 10.2955 16.6151 9.56348 17.0905L10.1081 17.9291ZM12.03 17.3613V18.3613C12.6927 18.3613 13.3223 18.6168 13.7818 19.0622L14.4778 18.3441L15.1738 17.6261C14.3348 16.8129 13.2034 16.3613 12.03 16.3613V17.3613ZM14.4778 18.3441L13.7818 19.0622C14.2401 19.5065 14.4917 20.1023 14.4917 20.7168H15.4917H16.4917C16.4917 19.5514 16.0138 18.4403 15.1738 17.6261L14.4778 18.3441Z" fill="#121C24" mask="url(#path-6-inside-3_130_1722)"/>
<mask id="path-8-inside-4_130_1722" fill="white">
<path d="M24.7886 20.7168C24.7886 21.3805 24.5856 22.0292 24.2052 22.581C23.8248 23.1328 23.2842 23.5629 22.6516 23.8169C22.0191 24.0708 21.3231 24.1373 20.6516 24.0078C19.9801 23.8783 19.3633 23.5588 18.8791 23.0895C18.395 22.6202 18.0653 22.0223 17.9318 21.3714C17.7982 20.7205 17.8667 20.0459 18.1287 19.4327C18.3907 18.8196 18.8344 18.2955 19.4037 17.9268C19.973 17.5581 20.6423 17.3613 21.3269 17.3613C22.245 17.3613 23.1255 17.7149 23.7747 18.3441C24.4239 18.9734 24.7886 19.8269 24.7886 20.7168Z"/>
</mask>
<path d="M24.7886 20.7168C24.7886 21.3805 24.5856 22.0292 24.2052 22.581C23.8248 23.1328 23.2842 23.5629 22.6516 23.8169C22.0191 24.0708 21.3231 24.1373 20.6516 24.0078C19.9801 23.8783 19.3633 23.5588 18.8791 23.0895C18.395 22.6202 18.0653 22.0223 17.9318 21.3714C17.7982 20.7205 17.8667 20.0459 18.1287 19.4327C18.3907 18.8196 18.8344 18.2955 19.4037 17.9268C19.973 17.5581 20.6423 17.3613 21.3269 17.3613C22.245 17.3613 23.1255 17.7149 23.7747 18.3441C24.4239 18.9734 24.7886 19.8269 24.7886 20.7168Z" fill="white"/>
<path d="M24.7886 20.7168H23.7886C23.7886 21.1756 23.6484 21.6268 23.3818 22.0135L24.2052 22.581L25.0285 23.1486C25.5227 22.4316 25.7886 21.5853 25.7886 20.7168H24.7886ZM24.2052 22.581L23.3818 22.0135C23.115 22.4005 22.7325 22.7068 22.279 22.8889L22.6516 23.8169L23.0242 24.7448C23.8359 24.419 24.5346 23.8651 25.0285 23.1486L24.2052 22.581ZM22.6516 23.8169L22.279 22.8889C21.8254 23.071 21.3245 23.1191 20.8409 23.0259L20.6516 24.0078L20.4622 24.9897C21.3217 25.1554 22.2128 25.0706 23.0242 24.7448L22.6516 23.8169ZM20.6516 24.0078L20.8409 23.0259C20.3575 22.9327 19.9175 22.7033 19.5751 22.3714L18.8791 23.0895L18.1831 23.8075C18.809 24.4142 19.6027 24.824 20.4622 24.9897L20.6516 24.0078ZM18.8791 23.0895L19.5751 22.3714C19.2331 22.0399 19.0039 21.6213 18.9113 21.1704L17.9318 21.3714L16.9522 21.5724C17.1268 22.4233 17.5569 23.2005 18.1831 23.8075L18.8791 23.0895ZM17.9318 21.3714L18.9113 21.1704C18.8189 20.7197 18.866 20.2522 19.0483 19.8257L18.1287 19.4327L17.2092 19.0398C16.8675 19.8395 16.7775 20.7213 16.9522 21.5724L17.9318 21.3714ZM18.1287 19.4327L19.0483 19.8257C19.2307 19.3987 19.5419 19.0287 19.9473 18.7662L19.4037 17.9268L18.8601 17.0875C18.127 17.5623 17.5507 18.2405 17.2092 19.0398L18.1287 19.4327ZM19.4037 17.9268L19.9473 18.7662C20.3531 18.5034 20.8332 18.3613 21.3269 18.3613V17.3613V16.3613C20.4513 16.3613 19.5929 16.6129 18.8601 17.0875L19.4037 17.9268ZM21.3269 17.3613V18.3613C21.9897 18.3613 22.6192 18.6168 23.0787 19.0622L23.7747 18.3441L24.4707 17.6261C23.6317 16.8129 22.5003 16.3613 21.3269 16.3613V17.3613ZM23.7747 18.3441L23.0787 19.0622C23.537 19.5065 23.7886 20.1023 23.7886 20.7168H24.7886H25.7886C25.7886 19.5514 25.3107 18.4403 24.4707 17.6261L23.7747 18.3441Z" fill="#121C24" mask="url(#path-8-inside-4_130_1722)"/>
<mask id="path-10-inside-5_130_1722" fill="white">
<path d="M29.3433 13.8281C29.3433 14.4917 29.1403 15.1404 28.76 15.6922C28.3797 16.2439 27.8391 16.674 27.2067 16.928C26.5743 17.182 25.8783 17.2486 25.2069 17.1192C24.5354 16.9899 23.9186 16.6705 23.4344 16.2014C22.9502 15.7323 22.6204 15.1345 22.4866 14.4837C22.3529 13.8329 22.4212 13.1583 22.683 12.5451C22.9447 11.932 23.3881 11.4078 23.9572 11.0389C24.5263 10.67 25.1954 10.473 25.88 10.4727C26.7982 10.4727 27.6789 10.8261 28.3283 11.4554C28.9778 12.0846 29.3428 12.9381 29.3433 13.8281Z"/>
</mask>
<path d="M29.3433 13.8281C29.3433 14.4917 29.1403 15.1404 28.76 15.6922C28.3797 16.2439 27.8391 16.674 27.2067 16.928C26.5743 17.182 25.8783 17.2486 25.2069 17.1192C24.5354 16.9899 23.9186 16.6705 23.4344 16.2014C22.9502 15.7323 22.6204 15.1345 22.4866 14.4837C22.3529 13.8329 22.4212 13.1583 22.683 12.5451C22.9447 11.932 23.3881 11.4078 23.9572 11.0389C24.5263 10.67 25.1954 10.473 25.88 10.4727C26.7982 10.4727 27.6789 10.8261 28.3283 11.4554C28.9778 12.0846 29.3428 12.9381 29.3433 13.8281Z" fill="white"/>
<path d="M25.88 10.4727V9.47266L25.8795 9.47266L25.88 10.4727ZM29.3433 13.8281L28.3433 13.8281C28.3433 14.2869 28.2031 14.738 27.9366 15.1247L28.76 15.6922L29.5834 16.2597C30.0775 15.5428 30.3433 14.6965 30.3433 13.8281H29.3433ZM28.76 15.6922L27.9366 15.1247C27.6699 15.5117 27.2874 15.818 26.834 16.0001L27.2067 16.928L27.5794 17.856C28.3909 17.53 29.0895 16.9762 29.5834 16.2597L28.76 15.6922ZM27.2067 16.928L26.834 16.0001C26.3804 16.1823 25.8795 16.2304 25.396 16.1373L25.2069 17.1192L25.0177 18.1012C25.8771 18.2667 26.7681 18.1818 27.5794 17.856L27.2067 16.928ZM25.2069 17.1192L25.396 16.1373C24.9126 16.0442 24.4727 15.8149 24.1302 15.4832L23.4344 16.2014L22.7386 16.9196C23.3645 17.526 24.1582 17.9356 25.0177 18.1012L25.2069 17.1192ZM23.4344 16.2014L24.1302 15.4832C23.7881 15.1517 23.5588 14.7332 23.4662 14.2824L22.4866 14.4837L21.5071 14.685C21.682 15.5358 22.1123 16.3128 22.7386 16.9196L23.4344 16.2014ZM22.4866 14.4837L23.4662 14.2824C23.3736 13.8318 23.4206 13.3643 23.6027 12.9378L22.683 12.5451L21.7633 12.1525C21.4219 12.9523 21.3322 13.8341 21.5071 14.685L22.4866 14.4837ZM22.683 12.5451L23.6027 12.9378C23.7849 12.5108 24.0959 12.1408 24.5012 11.878L23.9572 11.0389L23.4132 10.1998C22.6804 10.6749 22.1045 11.3532 21.7633 12.1525L22.683 12.5451ZM23.9572 11.0389L24.5012 11.878C24.9067 11.6151 25.3868 11.4729 25.8804 11.4727L25.88 10.4727L25.8795 9.47266C25.004 9.47306 24.1458 9.72495 23.4132 10.1998L23.9572 11.0389ZM25.88 10.4727L25.88 11.4727C26.5429 11.4727 27.1728 11.7282 27.6325 12.1736L28.3283 11.4554L29.0241 10.7372C28.185 9.9241 27.0535 9.47266 25.88 9.47266V10.4727ZM28.3283 11.4554L27.6325 12.1736C28.0911 12.6179 28.343 13.2139 28.3433 13.8286L29.3433 13.8281L30.3433 13.8276C30.3427 12.6622 29.8644 11.5512 29.0241 10.7372L28.3283 11.4554Z" fill="#121C24" mask="url(#path-10-inside-5_130_1722)"/>
<mask id="path-12-inside-6_130_1722" fill="white">
<path d="M13.8569 8.53003C13.8582 8.91451 13.7417 9.29073 13.5223 9.61103C13.3029 9.93133 12.9903 10.1813 12.6242 10.3293C12.2582 10.4773 11.855 10.5167 11.4658 10.4425C11.0766 10.3682 10.7189 10.1837 10.438 9.9123C10.157 9.64087 9.96549 9.29474 9.88763 8.91773C9.80976 8.54072 9.84907 8.14979 10.0006 7.79445C10.1521 7.43911 10.4089 7.13533 10.7386 6.92159C11.0684 6.70785 11.4561 6.59375 11.8527 6.59375C12.3843 6.59375 12.894 6.79842 13.2699 7.16274C13.6457 7.52705 13.8569 8.02117 13.8569 8.53639"/>
</mask>
<path d="M13.8569 8.53003C13.8582 8.91451 13.7417 9.29073 13.5223 9.61103C13.3029 9.93133 12.9903 10.1813 12.6242 10.3293C12.2582 10.4773 11.855 10.5167 11.4658 10.4425C11.0766 10.3682 10.7189 10.1837 10.438 9.9123C10.157 9.64087 9.96549 9.29474 9.88763 8.91773C9.80976 8.54072 9.84907 8.14979 10.0006 7.79445C10.1521 7.43911 10.4089 7.13533 10.7386 6.92159C11.0684 6.70785 11.4561 6.59375 11.8527 6.59375C12.3843 6.59375 12.894 6.79842 13.2699 7.16274C13.6457 7.52705 13.8569 8.02117 13.8569 8.53639" fill="white"/>
<path d="M11.8527 6.59375V5.59375H11.8527L11.8527 6.59375ZM13.8569 8.53003L12.8569 8.53341C12.8575 8.7129 12.8033 8.89119 12.6973 9.04587L13.5223 9.61103L14.3473 10.1762C14.6802 9.69027 14.8589 9.11613 14.8569 8.52665L13.8569 8.53003ZM13.5223 9.61103L12.6973 9.04587C12.5911 9.20096 12.4364 9.32662 12.2494 9.40223L12.6242 10.3293L12.9991 11.2564C13.5442 11.036 14.0147 10.6617 14.3473 10.1762L13.5223 9.61103ZM12.6242 10.3293L12.2494 9.40223C12.0622 9.47794 11.8542 9.49854 11.6532 9.46019L11.4658 10.4425L11.2784 11.4248C11.8558 11.5349 12.4541 11.4767 12.9991 11.2564L12.6242 10.3293ZM11.4658 10.4425L11.6532 9.46019C11.4522 9.42186 11.2717 9.32731 11.1328 9.19312L10.438 9.9123L9.74312 10.6315C10.1661 11.0401 10.701 11.3146 11.2784 11.4248L11.4658 10.4425ZM10.438 9.9123L11.1328 9.19312C10.9942 9.05927 10.9035 8.8924 10.867 8.71547L9.88763 8.91773L8.90829 9.11999C9.02748 9.69707 9.3198 10.2225 9.74312 10.6315L10.438 9.9123ZM9.88763 8.91773L10.867 8.71547C10.8305 8.53877 10.8486 8.3552 10.9204 8.18663L10.0006 7.79445L9.08067 7.40228C8.84955 7.94439 8.78906 8.54267 8.90829 9.11999L9.88763 8.91773ZM10.0006 7.79445L10.9204 8.18663C10.9925 8.01768 11.1168 7.86817 11.2826 7.7607L10.7386 6.92159L10.1947 6.08248C9.70102 6.40249 9.31162 6.86054 9.08067 7.40228L10.0006 7.79445ZM10.7386 6.92159L11.2826 7.7607C11.4487 7.65302 11.6472 7.59375 11.8527 7.59375L11.8527 6.59375L11.8527 5.59375C11.265 5.59375 10.688 5.76268 10.1947 6.08248L10.7386 6.92159ZM11.8527 6.59375V7.59375C12.1289 7.59375 12.3878 7.70039 12.5739 7.88077L13.2699 7.16274L13.9659 6.4447C13.4003 5.89645 12.6396 5.59375 11.8527 5.59375V6.59375ZM13.2699 7.16274L12.5739 7.88077C12.7589 8.06012 12.8569 8.29662 12.8569 8.53639H13.8569H14.8569C14.8569 7.74572 14.5325 6.99398 13.9659 6.4447L13.2699 7.16274Z" fill="#121C24" mask="url(#path-12-inside-6_130_1722)"/>
<mask id="path-14-inside-7_130_1722" fill="white">
<path d="M23.3916 8.53003C23.3928 8.91444 23.2765 9.29059 23.0571 9.61086C22.8378 9.93113 22.5253 10.1811 22.1593 10.3292C21.7933 10.4772 21.3902 10.5167 21.0011 10.4426C20.6119 10.3685 20.2542 10.1841 19.9732 9.91286C19.6922 9.64159 19.5005 9.2956 19.4225 8.9187C19.3444 8.5418 19.3835 8.15092 19.5348 7.79555C19.686 7.44018 19.9426 7.1363 20.2721 6.92236C20.6016 6.70843 20.9892 6.59407 21.3858 6.59375C21.9173 6.59375 22.4271 6.79842 22.8029 7.16274C23.1788 7.52705 23.3899 8.02117 23.3899 8.53639"/>
</mask>
<path d="M23.3916 8.53003C23.3928 8.91444 23.2765 9.29059 23.0571 9.61086C22.8378 9.93113 22.5253 10.1811 22.1593 10.3292C21.7933 10.4772 21.3902 10.5167 21.0011 10.4426C20.6119 10.3685 20.2542 10.1841 19.9732 9.91286C19.6922 9.64159 19.5005 9.2956 19.4225 8.9187C19.3444 8.5418 19.3835 8.15092 19.5348 7.79555C19.686 7.44018 19.9426 7.1363 20.2721 6.92236C20.6016 6.70843 20.9892 6.59407 21.3858 6.59375C21.9173 6.59375 22.4271 6.79842 22.8029 7.16274C23.1788 7.52705 23.3899 8.02117 23.3899 8.53639" fill="white"/>
<path d="M21.3858 6.59375V5.59375L21.385 5.59375L21.3858 6.59375ZM23.3916 8.53003L22.3916 8.53341C22.3922 8.71287 22.338 8.89112 22.2321 9.04579L23.0571 9.61086L23.8821 10.1759C24.2149 9.69007 24.3935 9.11602 24.3915 8.52665L23.3916 8.53003ZM23.0571 9.61086L22.2321 9.04579C22.1259 9.20085 21.9713 9.32652 21.7843 9.40215L22.1593 10.3292L22.5343 11.2562C23.0793 11.0357 23.5496 10.6614 23.8821 10.1759L23.0571 9.61086ZM22.1593 10.3292L21.7843 9.40215C21.5971 9.47788 21.3892 9.49853 21.1882 9.46024L21.0011 10.4426L20.814 11.4249C21.3913 11.5349 21.9895 11.4766 22.5343 11.2562L22.1593 10.3292ZM21.0011 10.4426L21.1882 9.46024C20.9872 9.42198 20.8067 9.32751 20.6677 9.1934L19.9732 9.91286L19.2787 10.6323C19.7018 11.0407 20.2366 11.315 20.814 11.4249L21.0011 10.4426ZM19.9732 9.91286L20.6677 9.1934C20.5292 9.05961 20.4383 8.89281 20.4017 8.71592L19.4225 8.9187L18.4433 9.12148C18.5627 9.6984 18.8553 10.2236 19.2787 10.6323L19.9732 9.91286ZM19.4225 8.9187L20.4017 8.71592C20.3651 8.53927 20.3831 8.35573 20.4549 8.18715L19.5348 7.79555L18.6146 7.40395C18.3839 7.94612 18.3238 8.54433 18.4433 9.12148L19.4225 8.9187ZM19.5348 7.79555L20.4549 8.18715C20.5268 8.0182 20.651 7.86865 20.8167 7.76109L20.2721 6.92236L19.7276 6.08364C19.2342 6.40394 18.8452 6.86217 18.6146 7.40395L19.5348 7.79555ZM20.2721 6.92236L20.8167 7.76109C20.9827 7.65332 21.1811 7.59391 21.3866 7.59375L21.3858 6.59375L21.385 5.59375C20.7973 5.59422 20.2206 5.76354 19.7276 6.08364L20.2721 6.92236ZM21.3858 6.59375V7.59375C21.662 7.59375 21.9208 7.70039 22.1069 7.88077L22.8029 7.16274L23.4989 6.4447C22.9333 5.89645 22.1726 5.59375 21.3858 5.59375V6.59375ZM22.8029 7.16274L22.1069 7.88077C22.2919 8.06013 22.3899 8.29662 22.3899 8.53639H23.3899H24.3899C24.3899 7.74572 24.0656 6.99398 23.4989 6.4447L22.8029 7.16274Z" fill="#121C24" mask="url(#path-14-inside-7_130_1722)"/>
</svg>
