<svg width="26" height="31" viewBox="0 0 26 31" fill="none" xmlns="http://www.w3.org/2000/svg">
<mask id="path-1-inside-1_130_1700" fill="white">
<path d="M25.7436 15.0664C25.7437 12.841 25.106 10.6594 23.9014 8.76496C22.6969 6.8705 20.973 5.33772 18.9221 4.33764C16.8713 3.33757 14.574 2.90954 12.2868 3.10132C9.99955 3.2931 7.81226 4.09714 5.969 5.42373C4.12574 6.75032 2.69899 8.54727 1.84797 10.6141C0.996954 12.6809 0.755128 14.9363 1.14948 17.1285C1.54384 19.3208 2.55886 21.3638 4.08129 23.0294C5.60372 24.6951 7.57367 25.9179 9.77134 26.5616C9.73395 26.7305 9.7147 26.9027 9.71389 27.0755C9.71389 28.7333 11.3454 30.0777 13.3578 30.0777C15.3701 30.0777 16.9934 28.7381 16.9934 27.0755C16.9926 26.9027 16.9733 26.7305 16.936 26.5616C19.4817 25.815 21.712 24.2943 23.2973 22.2242C24.8825 20.1541 25.7385 17.6445 25.7387 15.0664"/>
</mask>
<path d="M9.77134 26.5616L10.7477 26.7776L10.9498 25.8647L10.0524 25.6019L9.77134 26.5616ZM9.71389 27.0755L8.71389 27.0708V27.0755H9.71389ZM16.9934 27.0755H17.9934L17.9934 27.0708L16.9934 27.0755ZM16.936 26.5616L16.6546 25.602L15.7576 25.865L15.9596 26.7776L16.936 26.5616ZM25.7436 15.0664L26.7436 15.0664C26.7437 12.6493 26.0509 10.2818 24.7453 8.22841L23.9014 8.76496L23.0576 9.3015C24.1611 11.0371 24.7437 13.0328 24.7436 15.0663L25.7436 15.0664ZM23.9014 8.76496L24.7453 8.22841C23.44 6.17537 21.5745 4.51846 19.3604 3.43881L18.9221 4.33764L18.4839 5.23647C20.3715 6.15697 21.9539 7.56562 23.0576 9.3015L23.9014 8.76496ZM18.9221 4.33764L19.3604 3.43881C17.1466 2.35927 14.6689 1.89808 12.2032 2.10482L12.2868 3.10132L12.3703 4.09783C14.4791 3.92101 16.5959 4.31588 18.4839 5.23647L18.9221 4.33764ZM12.2868 3.10132L12.2032 2.10482C9.7375 2.31157 7.37681 3.17848 5.38486 4.61208L5.969 5.42373L6.55314 6.23538C8.24772 5.0158 10.2616 4.27464 12.3703 4.09783L12.2868 3.10132ZM5.969 5.42373L5.38486 4.61208C3.39265 6.04586 1.84658 7.99102 0.923293 10.2333L1.84797 10.6141L2.77266 10.9948C3.55141 9.10352 4.85882 7.45478 6.55314 6.23538L5.969 5.42373ZM1.84797 10.6141L0.923293 10.2333C-0.000111341 12.4759 -0.262981 14.9248 0.165279 17.3056L1.14948 17.1285L2.13369 16.9515C1.77324 14.9477 1.99402 12.8858 2.77266 10.9948L1.84797 10.6141ZM1.14948 17.1285L0.165279 17.3056C0.593509 19.6862 1.69514 21.901 3.34316 23.7041L4.08129 23.0294L4.81942 22.3548C3.42257 20.8265 2.49416 18.9554 2.13369 16.9515L1.14948 17.1285ZM4.08129 23.0294L3.34316 23.7041C4.99091 25.5069 7.11979 26.827 9.49028 27.5212L9.77134 26.5616L10.0524 25.6019C8.02755 25.0089 6.21652 23.8833 4.81942 22.3548L4.08129 23.0294ZM9.77134 26.5616L8.79497 26.3455C8.74224 26.5837 8.71505 26.8268 8.7139 27.0708L9.71389 27.0755L10.7139 27.0801C10.7144 26.9786 10.7257 26.8772 10.7477 26.7776L9.77134 26.5616ZM9.71389 27.0755H8.71389C8.71389 29.458 10.983 31.0777 13.3578 31.0777V30.0777V29.0777C11.7078 29.0777 10.7139 28.0086 10.7139 27.0755H9.71389ZM13.3578 30.0777V31.0777C15.7345 31.0777 17.9934 29.4611 17.9934 27.0755H16.9934H15.9934C15.9934 28.015 15.0056 29.0777 13.3578 29.0777V30.0777ZM16.9934 27.0755L17.9934 27.0708C17.9923 26.8268 17.9651 26.5837 17.9123 26.3455L16.936 26.5616L15.9596 26.7776C15.9816 26.8772 15.9929 26.9786 15.9934 27.0801L16.9934 27.0755ZM16.936 26.5616L17.2174 27.5211C19.9631 26.7159 22.3744 25.0741 24.0912 22.8322L23.2973 22.2242L22.5033 21.6162C21.0496 23.5145 19.0002 24.9141 16.6546 25.602L16.936 26.5616ZM23.2973 22.2242L24.0912 22.8322C25.8084 20.5897 26.7385 17.867 26.7387 15.0665L25.7387 15.0664L24.7387 15.0663C24.7385 17.4219 23.9566 19.7184 22.5033 21.6162L23.2973 22.2242Z" fill="#01CC01" mask="url(#path-1-inside-1_130_1700)"/>
<path d="M13.356 0.730469C15.1295 0.730469 16.4158 1.86262 16.4946 3.11133L16.4985 3.23242C16.4976 3.37004 16.4824 3.50768 16.4536 3.64258L16.3569 4.0957L16.8022 4.22656C18.9127 4.84563 20.8024 6.02006 22.2612 7.61719C23.7201 9.21437 24.6911 11.1717 25.0679 13.2695C25.4447 15.3673 25.2129 17.5255 24.3979 19.5039C23.5829 21.4825 22.2154 23.2049 20.4468 24.4775C18.678 25.7502 16.578 26.5228 14.3804 26.707C12.1829 26.8913 9.97637 26.4803 8.00732 25.5205C6.03838 24.5606 4.38519 23.0899 3.23096 21.2754C2.07681 19.4608 1.46576 17.3723 1.46533 15.2432C1.46549 12.7762 2.28406 10.3728 3.80322 8.38867C5.32264 6.40424 7.46291 4.94409 9.90869 4.22656L10.354 4.0957L10.2573 3.64258C10.2285 3.50768 10.2134 3.37004 10.2124 3.23242C10.2126 1.93708 11.5251 0.730532 13.356 0.730469Z" stroke="#01CC01"/>
<path d="M13.2329 18.1543C13.5523 18.1543 13.8683 18.2158 14.1626 18.334C14.4568 18.4522 14.7232 18.625 14.9468 18.8418C15.1701 19.0585 15.3463 19.3148 15.4663 19.5957C15.5863 19.8769 15.6481 20.1781 15.6479 20.4814C15.6476 20.9376 15.508 21.3848 15.2446 21.7666C14.981 22.1487 14.6046 22.4492 14.1616 22.627C13.7184 22.8047 13.2297 22.8508 12.7583 22.7598C12.287 22.6687 11.8557 22.4447 11.519 22.1182C11.1828 21.7919 10.9557 21.3785 10.8638 20.9307C10.7719 20.4827 10.8187 20.0177 10.9995 19.5947C11.1804 19.1716 11.4878 18.8072 11.8853 18.5498C12.2828 18.2924 12.7519 18.1543 13.2329 18.1543Z" fill="white" stroke="#01CC01"/>
<mask id="path-5-inside-2_130_1700" fill="white">
<path d="M11.3502 11.8878C11.3499 12.4467 11.1786 12.9929 10.858 13.4574C10.5374 13.9219 10.0819 14.2838 9.54915 14.4974C9.01636 14.711 8.4302 14.7666 7.86479 14.6573C7.29939 14.5479 6.78012 14.2785 6.37267 13.8831C5.96522 13.4877 5.68787 12.9841 5.57571 12.4359C5.46355 11.8877 5.52161 11.3196 5.74255 10.8034C5.96348 10.2872 6.33737 9.8461 6.81694 9.53587C7.2965 9.22565 7.8602 9.06023 8.43675 9.06055C8.81957 9.06076 9.19859 9.13405 9.55218 9.27625C9.90578 9.41844 10.227 9.62675 10.4976 9.88929C10.7681 10.1518 10.9826 10.4634 11.1289 10.8063C11.2752 11.1492 11.3504 11.5167 11.3502 11.8878Z"/>
</mask>
<path d="M11.3502 11.8878C11.3499 12.4467 11.1786 12.9929 10.858 13.4574C10.5374 13.9219 10.0819 14.2838 9.54915 14.4974C9.01636 14.711 8.4302 14.7666 7.86479 14.6573C7.29939 14.5479 6.78012 14.2785 6.37267 13.8831C5.96522 13.4877 5.68787 12.9841 5.57571 12.4359C5.46355 11.8877 5.52161 11.3196 5.74255 10.8034C5.96348 10.2872 6.33737 9.8461 6.81694 9.53587C7.2965 9.22565 7.8602 9.06023 8.43675 9.06055C8.81957 9.06076 9.19859 9.13405 9.55218 9.27625C9.90578 9.41844 10.227 9.62675 10.4976 9.88929C10.7681 10.1518 10.9826 10.4634 11.1289 10.8063C11.2752 11.1492 11.3504 11.5167 11.3502 11.8878Z" fill="white"/>
<path d="M8.43675 9.06055L8.4373 8.06055L8.43675 9.06055ZM11.3502 11.8878L10.3502 11.8872C10.35 12.2412 10.2416 12.5899 10.035 12.8894L10.858 13.4574L11.681 14.0254C12.1155 13.3958 12.3498 12.6521 12.3502 11.8884L11.3502 11.8878ZM10.858 13.4574L10.035 12.8894C9.82806 13.1892 9.53071 13.4274 9.17707 13.5692L9.54915 14.4974L9.92123 15.4256C10.6332 15.1402 11.2468 14.6546 11.681 14.0254L10.858 13.4574ZM9.54915 14.4974L9.17707 13.5692C8.82318 13.711 8.43214 13.7484 8.05466 13.6754L7.86479 14.6573L7.67493 15.6391C8.42826 15.7847 9.20955 15.7109 9.92123 15.4256L9.54915 14.4974ZM7.86479 14.6573L8.05466 13.6754C7.67729 13.6025 7.33486 13.4234 7.06908 13.1655L6.37267 13.8831L5.67626 14.6008C6.22539 15.1336 6.92148 15.4934 7.67493 15.6391L7.86479 14.6573ZM6.37267 13.8831L7.06908 13.1655C6.80364 12.9079 6.62665 12.5836 6.55542 12.2355L5.57571 12.4359L4.59601 12.6364C4.7491 13.3846 5.1268 14.0676 5.67626 14.6008L6.37267 13.8831ZM5.57571 12.4359L6.55542 12.2355C6.48423 11.8875 6.52077 11.5266 6.66188 11.1969L5.74255 10.8034L4.82321 10.4099C4.52245 11.1126 4.44288 11.8879 4.59601 12.6364L5.57571 12.4359ZM5.74255 10.8034L6.66188 11.1969C6.80315 10.8668 7.04443 10.5797 7.36009 10.3755L6.81694 9.53587L6.27379 8.69624C5.63032 9.11249 5.12382 9.70759 4.82321 10.4099L5.74255 10.8034ZM6.81694 9.53587L7.36009 10.3755C7.67606 10.1711 8.05063 10.0603 8.43621 10.0605L8.43675 9.06055L8.4373 8.06055C7.66978 8.06013 6.91694 8.28019 6.27379 8.69624L6.81694 9.53587ZM8.43675 9.06055L8.43621 10.0605C8.69195 10.0607 8.94446 10.1097 9.17908 10.204L9.55218 9.27625L9.92529 8.34846C9.45272 8.15842 8.94719 8.06083 8.4373 8.06055L8.43675 9.06055ZM9.55218 9.27625L9.17908 10.204C9.41364 10.2984 9.62476 10.4358 9.80114 10.6069L10.4976 9.88929L11.194 9.17165C10.8293 8.81774 10.3979 8.53852 9.92529 8.34846L9.55218 9.27625ZM10.4976 9.88929L9.80114 10.6069C9.97746 10.778 10.1156 10.9794 10.2091 11.1988L11.1289 10.8063L12.0487 10.4139C11.8497 9.94746 11.5587 9.52561 11.194 9.17165L10.4976 9.88929ZM11.1289 10.8063L10.2091 11.1988C10.3027 11.418 10.3503 11.6519 10.3502 11.8872L11.3502 11.8878L12.3502 11.8884C12.3505 11.3816 12.2478 10.8805 12.0487 10.4139L11.1289 10.8063Z" fill="#01CC01" mask="url(#path-5-inside-2_130_1700)"/>
<mask id="path-7-inside-3_130_1700" fill="white">
<path d="M21.1886 11.8878C21.1882 12.4466 21.017 12.9928 20.6965 13.4572C20.376 13.9217 19.9206 14.2836 19.3879 14.4972C18.8552 14.7109 18.2691 14.7666 17.7038 14.6574C17.1384 14.5482 16.6191 14.2789 16.2116 13.8837C15.8041 13.4885 15.5266 12.985 15.4143 12.4369C15.3019 11.8888 15.3598 11.3207 15.5805 10.8045C15.8011 10.2883 16.1748 9.84706 16.6541 9.53665C17.1335 9.22623 17.697 9.06055 18.2735 9.06055C18.6564 9.06055 19.0356 9.13369 19.3894 9.27579C19.7432 9.41789 20.0646 9.62617 20.3353 9.88873C20.6061 10.1513 20.8207 10.463 20.9671 10.806C21.1135 11.149 21.1888 11.5166 21.1886 11.8878Z"/>
</mask>
<path d="M21.1886 11.8878C21.1882 12.4466 21.017 12.9928 20.6965 13.4572C20.376 13.9217 19.9206 14.2836 19.3879 14.4972C18.8552 14.7109 18.2691 14.7666 17.7038 14.6574C17.1384 14.5482 16.6191 14.2789 16.2116 13.8837C15.8041 13.4885 15.5266 12.985 15.4143 12.4369C15.3019 11.8888 15.3598 11.3207 15.5805 10.8045C15.8011 10.2883 16.1748 9.84706 16.6541 9.53665C17.1335 9.22623 17.697 9.06055 18.2735 9.06055C18.6564 9.06055 19.0356 9.13369 19.3894 9.27579C19.7432 9.41789 20.0646 9.62617 20.3353 9.88873C20.6061 10.1513 20.8207 10.463 20.9671 10.806C21.1135 11.149 21.1888 11.5166 21.1886 11.8878Z" fill="white"/>
<path d="M18.2735 9.06055L18.2735 8.06055L18.2735 9.06055ZM21.1886 11.8878L20.1886 11.8872C20.1884 12.2412 20.08 12.5899 19.8734 12.8893L20.6965 13.4572L21.5196 14.0252C21.954 13.3957 22.1881 12.652 22.1886 11.8884L21.1886 11.8878ZM20.6965 13.4572L19.8734 12.8893C19.6666 13.1891 19.3693 13.4273 19.0157 13.5691L19.3879 14.4972L19.7601 15.4254C20.4719 15.1399 21.0854 14.6543 21.5196 14.0252L20.6965 13.4572ZM19.3879 14.4972L19.0157 13.5691C18.6619 13.711 18.2709 13.7484 17.8934 13.6755L17.7038 14.6574L17.5141 15.6392C18.2674 15.7847 19.0486 15.7107 19.7601 15.4254L19.3879 14.4972ZM17.7038 14.6574L17.8934 13.6755C17.5161 13.6026 17.1737 13.4237 16.9078 13.1659L16.2116 13.8837L15.5154 14.6015C16.0646 15.1342 16.7607 15.4937 17.5141 15.6392L17.7038 14.6574ZM16.2116 13.8837L16.9078 13.1659C16.6423 12.9084 16.4653 12.5842 16.3939 12.2361L15.4143 12.4369L14.4347 12.6377C14.588 13.3857 14.9659 14.0685 15.5154 14.6015L16.2116 13.8837ZM15.4143 12.4369L16.3939 12.2361C16.3226 11.8882 16.359 11.5273 16.5 11.1976L15.5805 10.8045L14.661 10.4114C14.3605 11.1142 14.2813 11.8894 14.4347 12.6377L15.4143 12.4369ZM15.5805 10.8045L16.5 11.1976C16.6411 10.8675 16.8822 10.5803 17.1977 10.376L16.6541 9.53665L16.1106 8.69728C15.4674 9.11379 14.9612 9.70905 14.661 10.4114L15.5805 10.8045ZM16.6541 9.53665L17.1977 10.376C17.5135 10.1715 17.888 10.0605 18.2735 10.0605V9.06055L18.2735 8.06055C17.5061 8.06055 16.7534 8.28097 16.1106 8.69728L16.6541 9.53665ZM18.2735 9.06055V10.0605C18.5293 10.0605 18.782 10.1094 19.0167 10.2037L19.3894 9.27579L19.7621 8.34785C19.2893 8.15793 18.7836 8.06055 18.2735 8.06055L18.2735 9.06055ZM19.3894 9.27579L19.0167 10.2037C19.2514 10.298 19.4626 10.4354 19.6391 10.6066L20.3353 9.88873L21.0316 9.17089C20.6666 8.81696 20.235 8.53778 19.7621 8.34785L19.3894 9.27579ZM20.3353 9.88873L19.6391 10.6066C19.8156 10.7777 19.9538 10.9791 20.0474 11.1985L20.9671 10.806L21.8869 10.4134C21.6877 9.94682 21.3965 9.52488 21.0316 9.17089L20.3353 9.88873ZM20.9671 10.806L20.0474 11.1985C20.141 11.4179 20.1887 11.6518 20.1886 11.8872L21.1886 11.8878L22.1886 11.8884C22.1889 11.3814 22.0861 10.8801 21.8869 10.4134L20.9671 10.806Z" fill="#01CC01" mask="url(#path-7-inside-3_130_1700)"/>
<mask id="path-9-inside-4_130_1700" fill="white">
<path d="M21.9174 19.8294C21.9174 20.2137 21.7998 20.5893 21.5796 20.9088C21.3593 21.2283 21.0462 21.4773 20.6799 21.6243C20.3136 21.7713 19.9105 21.8097 19.5217 21.7346C19.1329 21.6595 18.7758 21.4743 18.4956 21.2025C18.2154 20.9306 18.0246 20.5843 17.9475 20.2074C17.8703 19.8304 17.9103 19.4398 18.0622 19.0848C18.2141 18.7299 18.4713 18.4266 18.8011 18.2133C19.1309 18.0001 19.5185 17.8864 19.9149 17.8867C20.178 17.8867 20.4386 17.937 20.6816 18.0346C20.9247 18.1323 21.1455 18.2754 21.3315 18.4558C21.5175 18.6362 21.6649 18.8504 21.7655 19.0861C21.866 19.3217 21.9176 19.5743 21.9174 19.8294Z"/>
</mask>
<path d="M21.9174 19.8294C21.9174 20.2137 21.7998 20.5893 21.5796 20.9088C21.3593 21.2283 21.0462 21.4773 20.6799 21.6243C20.3136 21.7713 19.9105 21.8097 19.5217 21.7346C19.1329 21.6595 18.7758 21.4743 18.4956 21.2025C18.2154 20.9306 18.0246 20.5843 17.9475 20.2074C17.8703 19.8304 17.9103 19.4398 18.0622 19.0848C18.2141 18.7299 18.4713 18.4266 18.8011 18.2133C19.1309 18.0001 19.5185 17.8864 19.9149 17.8867C20.178 17.8867 20.4386 17.937 20.6816 18.0346C20.9247 18.1323 21.1455 18.2754 21.3315 18.4558C21.5175 18.6362 21.6649 18.8504 21.7655 19.0861C21.866 19.3217 21.9176 19.5743 21.9174 19.8294Z" fill="white"/>
<path d="M19.9149 17.8867L19.9141 18.8867H19.9149L19.9149 17.8867ZM21.9174 19.8294L20.9174 19.8294C20.9174 20.0088 20.8627 20.1868 20.7563 20.3412L21.5796 20.9088L22.4028 21.4764C22.737 20.9918 22.9174 20.4185 22.9174 19.8294L21.9174 19.8294ZM21.5796 20.9088L20.7563 20.3412C20.6496 20.4959 20.4946 20.6211 20.3075 20.6962L20.6799 21.6243L21.0523 22.5524C21.5977 22.3335 22.0689 21.9607 22.4028 21.4764L21.5796 20.9088ZM20.6799 21.6243L20.3075 20.6962C20.1201 20.7714 19.9122 20.7915 19.7113 20.7527L19.5217 21.7346L19.3321 22.7164C19.9089 22.8278 20.5071 22.7711 21.0523 22.5524L20.6799 21.6243ZM19.5217 21.7346L19.7113 20.7527C19.5106 20.7139 19.3304 20.6191 19.1919 20.4847L18.4956 21.2025L17.7993 21.9202C18.2212 22.3295 18.7552 22.605 19.3321 22.7164L19.5217 21.7346ZM18.4956 21.2025L19.1919 20.4847C19.0537 20.3507 18.9634 20.1838 18.9272 20.0069L17.9475 20.2074L16.9678 20.4079C17.0859 20.9849 17.377 21.5106 17.7993 21.9202L18.4956 21.2025ZM17.9475 20.2074L18.9272 20.0069C18.891 19.8302 18.9094 19.6468 18.9815 19.4784L18.0622 19.0848L17.1429 18.6913C16.9111 19.2328 16.8497 19.8307 16.9678 20.4079L17.9475 20.2074ZM18.0622 19.0848L18.9815 19.4784C19.0538 19.3096 19.1782 19.1603 19.3441 19.0531L18.8011 18.2133L18.258 17.3736C17.7643 17.6929 17.3745 18.1502 17.1429 18.6913L18.0622 19.0848ZM18.8011 18.2133L19.3441 19.0531C19.5103 18.9456 19.7087 18.8866 19.9141 18.8867L19.9149 17.8867L19.9157 16.8867C19.3283 16.8863 18.7515 17.0545 18.258 17.3736L18.8011 18.2133ZM19.9149 17.8867L19.9149 18.8867C20.0509 18.8867 20.1849 18.9127 20.3089 18.9625L20.6816 18.0346L21.0544 17.1067C20.6923 16.9612 20.3052 16.8867 19.9149 16.8867L19.9149 17.8867ZM20.6816 18.0346L20.3089 18.9625C20.4328 19.0123 20.5434 19.0845 20.6352 19.1736L21.3315 18.4558L22.0278 17.7381C21.7476 17.4662 21.4166 17.2522 21.0544 17.1067L20.6816 18.0346ZM21.3315 18.4558L20.6352 19.1736C20.7269 19.2625 20.7979 19.3664 20.8457 19.4784L21.7655 19.0861L22.6853 18.6937C22.532 18.3344 22.308 18.0099 22.0278 17.7381L21.3315 18.4558ZM21.7655 19.0861L20.8457 19.4784C20.8934 19.5904 20.9175 19.7093 20.9174 19.8285L21.9174 19.8294L22.9174 19.8302C22.9178 19.4394 22.8386 19.0531 22.6853 18.6937L21.7655 19.0861Z" fill="#01CC01" mask="url(#path-9-inside-4_130_1700)"/>
<path d="M6.79541 18.3867H6.79639C6.9958 18.3866 7.19298 18.4245 7.37646 18.498C7.56012 18.5717 7.72673 18.6797 7.86572 18.8145C8.00452 18.9491 8.11381 19.1084 8.18799 19.2822C8.26214 19.4561 8.29947 19.642 8.29932 19.8291L8.29541 19.9346C8.27671 20.1796 8.19321 20.4177 8.05029 20.625C7.88689 20.862 7.65301 21.0491 7.37646 21.1602C7.09978 21.2712 6.79422 21.3009 6.49951 21.2441C6.20478 21.1873 5.93548 21.0467 5.72607 20.8438C5.51703 20.641 5.3766 20.3841 5.31982 20.1074C5.26315 19.8308 5.29204 19.5438 5.40381 19.2822C5.51568 19.0205 5.70615 18.7941 5.95361 18.6338C6.20136 18.4733 6.4946 18.3868 6.79541 18.3867Z" fill="white" stroke="#01CC01"/>
</svg>
